<?xml version="1.0" encoding="UTF-8" standalone="no"?>
<!DOCTYPE svg PUBLIC "-//W3C//DTD SVG 1.1//EN"
 "http://www.w3.org/Graphics/SVG/1.1/DTD/svg11.dtd">
<!-- Generated by graphviz version 12.1.2 (20240928.0832)
 -->
<!-- Title: public.employee_projects Pages: 1 -->
<svg width="962pt" height="602pt"
 viewBox="0.00 0.00 962.12 602.00" xmlns="http://www.w3.org/2000/svg" xmlns:xlink="http://www.w3.org/1999/xlink">
<g id="graph0" class="graph" transform="scale(1 1) rotate(0) translate(4 598)">
<title>public.employee_projects</title>
<polygon fill="white" stroke="none" points="-4,4 -4,-598 958.12,-598 958.12,4 -4,4"/>
<!-- public.employee_projects -->
<g id="node1" class="node">
<title>public.employee_projects</title>
<polygon fill="#efefef" stroke="none" points="335.11,-512.2 335.11,-547.8 659.04,-547.8 659.04,-512.2 335.11,-512.2"/>
<polygon fill="none" stroke="black" points="335.11,-512.2 335.11,-547.8 659.04,-547.8 659.04,-512.2 335.11,-512.2"/>
<text text-anchor="start" x="342.11" y="-525.6" font-family="Arial Bold" font-size="18.00">public.employee_projects</text>
<text text-anchor="start" x="527.55" y="-525.6" font-family="Arial" font-size="14.00">    </text>
<text text-anchor="start" x="558.67" y="-525.6" font-family="Arial" font-size="14.00" fill="#666666">[BASE TABLE]</text>
<polygon fill="none" stroke="black" points="335.11,-481.4 335.11,-512.2 659.04,-512.2 659.04,-481.4 335.11,-481.4"/>
<text text-anchor="start" x="342.11" y="-493.6" font-family="Arial" font-size="14.00">employee_id </text>
<text text-anchor="start" x="425.39" y="-493.6" font-family="Arial" font-size="14.00" fill="#666666">[integer]</text>
<polygon fill="none" stroke="black" points="335.11,-450.6 335.11,-481.4 659.04,-481.4 659.04,-450.6 335.11,-450.6"/>
<text text-anchor="start" x="342.11" y="-462.8" font-family="Arial" font-size="14.00">project_id </text>
<text text-anchor="start" x="406.71" y="-462.8" font-family="Arial" font-size="14.00" fill="#666666">[integer]</text>
<polygon fill="none" stroke="black" stroke-width="3" points="333.61,-449.1 333.61,-549.3 660.54,-549.3 660.54,-449.1 333.61,-449.1"/>
</g>
<!-- public.employees -->
<g id="node2" class="node">
<title>public.employees</title>
<polygon fill="#efefef" stroke="none" points="185.6,-289.6 185.6,-325.2 450.55,-325.2 450.55,-289.6 185.6,-289.6"/>
<polygon fill="none" stroke="black" points="185.6,-289.6 185.6,-325.2 450.55,-325.2 450.55,-289.6 185.6,-289.6"/>
<text text-anchor="start" x="192.6" y="-303" font-family="Arial Bold" font-size="18.00">public.employees</text>
<text text-anchor="start" x="319.07" y="-303" font-family="Arial" font-size="14.00">    </text>
<text text-anchor="start" x="350.18" y="-303" font-family="Arial" font-size="14.00" fill="#666666">[BASE TABLE]</text>
<polygon fill="none" stroke="black" points="185.6,-258.8 185.6,-289.6 450.55,-289.6 450.55,-258.8 185.6,-258.8"/>
<text text-anchor="start" x="192.6" y="-271" font-family="Arial" font-size="14.00">employee_id </text>
<text text-anchor="start" x="275.88" y="-271" font-family="Arial" font-size="14.00" fill="#666666">[integer]</text>
<polygon fill="none" stroke="black" points="185.6,-228 185.6,-258.8 450.55,-258.8 450.55,-228 185.6,-228"/>
<text text-anchor="start" x="192.6" y="-240.2" font-family="Arial" font-size="14.00">first_name </text>
<text text-anchor="start" x="261.85" y="-240.2" font-family="Arial" font-size="14.00" fill="#666666">[varchar(50)]</text>
<polygon fill="none" stroke="black" points="185.6,-197.2 185.6,-228 450.55,-228 450.55,-197.2 185.6,-197.2"/>
<text text-anchor="start" x="192.6" y="-209.4" font-family="Arial" font-size="14.00">last_name </text>
<text text-anchor="start" x="261.08" y="-209.4" font-family="Arial" font-size="14.00" fill="#666666">[varchar(50)]</text>
<polygon fill="none" stroke="black" points="185.6,-166.4 185.6,-197.2 450.55,-197.2 450.55,-166.4 185.6,-166.4"/>
<text text-anchor="start" x="192.6" y="-178.6" font-family="Arial" font-size="14.00">email </text>
<text text-anchor="start" x="229.94" y="-178.6" font-family="Arial" font-size="14.00" fill="#666666">[varchar(100)]</text>
<polygon fill="none" stroke="black" points="185.6,-135.6 185.6,-166.4 450.55,-166.4 450.55,-135.6 185.6,-135.6"/>
<text text-anchor="start" x="192.6" y="-147.8" font-family="Arial" font-size="14.00">hire_date </text>
<text text-anchor="start" x="254.87" y="-147.8" font-family="Arial" font-size="14.00" fill="#666666">[date]</text>
<polygon fill="none" stroke="black" points="185.6,-104.8 185.6,-135.6 450.55,-135.6 450.55,-104.8 185.6,-104.8"/>
<text text-anchor="start" x="192.6" y="-117" font-family="Arial" font-size="14.00">salary </text>
<text text-anchor="start" x="233.83" y="-117" font-family="Arial" font-size="14.00" fill="#666666">[numeric(10,2)]</text>
<polygon fill="none" stroke="black" points="185.6,-74 185.6,-104.8 450.55,-104.8 450.55,-74 185.6,-74"/>
<text text-anchor="start" x="192.6" y="-86.2" font-family="Arial" font-size="14.00">department_id </text>
<text text-anchor="start" x="285.99" y="-86.2" font-family="Arial" font-size="14.00" fill="#666666">[integer]</text>
<polygon fill="none" stroke="black" points="185.6,-43.2 185.6,-74 450.55,-74 450.55,-43.2 185.6,-43.2"/>
<text text-anchor="start" x="192.6" y="-55.4" font-family="Arial" font-size="14.00">manager_id </text>
<text text-anchor="start" x="270.43" y="-55.4" font-family="Arial" font-size="14.00" fill="#666666">[integer]</text>
</g>
<!-- public.employee_projects&#45;&gt;public.employees -->
<g id="edge1" class="edge">
<title>public.employee_projects:employee_id&#45;&gt;public.employees:employee_id</title>
<path fill="none" stroke="black" d="M324.06,-495.3C296.4,-485.89 312.9,-434.26 335.11,-404.4 367.19,-361.28 418.48,-411.52 450.55,-368.4 475.54,-334.81 493.42,-274.2 451.55,-274.2"/>
<polygon fill="black" stroke="black" points="323.89,-495.28 333.12,-501.2 329.17,-496.06 333.45,-496.7 333.45,-496.7 333.45,-496.7 329.17,-496.06 334.44,-492.3 323.89,-495.28"/>
<text text-anchor="start" x="7" y="-506.8" font-family="Arial" font-size="10.00">FOREIGN KEY (employee_id) REFERENCES employees(employee_id)</text>
</g>
<!-- public.projects -->
<g id="node3" class="node">
<title>public.projects</title>
<polygon fill="#efefef" stroke="none" points="554.6,-258.8 554.6,-294.4 799.56,-294.4 799.56,-258.8 554.6,-258.8"/>
<polygon fill="none" stroke="black" points="554.6,-258.8 554.6,-294.4 799.56,-294.4 799.56,-258.8 554.6,-258.8"/>
<text text-anchor="start" x="561.6" y="-272.2" font-family="Arial Bold" font-size="18.00">public.projects</text>
<text text-anchor="start" x="668.07" y="-272.2" font-family="Arial" font-size="14.00">    </text>
<text text-anchor="start" x="699.19" y="-272.2" font-family="Arial" font-size="14.00" fill="#666666">[BASE TABLE]</text>
<polygon fill="none" stroke="black" points="554.6,-228 554.6,-258.8 799.56,-258.8 799.56,-228 554.6,-228"/>
<text text-anchor="start" x="561.6" y="-240.2" font-family="Arial" font-size="14.00">project_id </text>
<text text-anchor="start" x="626.19" y="-240.2" font-family="Arial" font-size="14.00" fill="#666666">[integer]</text>
<polygon fill="none" stroke="black" points="554.6,-197.2 554.6,-228 799.56,-228 799.56,-197.2 554.6,-197.2"/>
<text text-anchor="start" x="561.6" y="-209.4" font-family="Arial" font-size="14.00">project_name </text>
<text text-anchor="start" x="650.31" y="-209.4" font-family="Arial" font-size="14.00" fill="#666666">[varchar(100)]</text>
<polygon fill="none" stroke="black" points="554.6,-166.4 554.6,-197.2 799.56,-197.2 799.56,-166.4 554.6,-166.4"/>
<text text-anchor="start" x="561.6" y="-178.6" font-family="Arial" font-size="14.00">status </text>
<text text-anchor="start" x="602.84" y="-178.6" font-family="Arial" font-size="14.00" fill="#666666">[varchar(20)]</text>
<polygon fill="none" stroke="black" points="554.6,-135.6 554.6,-166.4 799.56,-166.4 799.56,-135.6 554.6,-135.6"/>
<text text-anchor="start" x="561.6" y="-147.8" font-family="Arial" font-size="14.00">start_date </text>
<text text-anchor="start" x="627.75" y="-147.8" font-family="Arial" font-size="14.00" fill="#666666">[date]</text>
<polygon fill="none" stroke="black" points="554.6,-104.8 554.6,-135.6 799.56,-135.6 799.56,-104.8 554.6,-104.8"/>
<text text-anchor="start" x="561.6" y="-117" font-family="Arial" font-size="14.00">end_date </text>
<text text-anchor="start" x="623.88" y="-117" font-family="Arial" font-size="14.00" fill="#666666">[date]</text>
<polygon fill="none" stroke="black" points="554.6,-74 554.6,-104.8 799.56,-104.8 799.56,-74 554.6,-74"/>
<text text-anchor="start" x="561.6" y="-86.2" font-family="Arial" font-size="14.00">client_id </text>
<text text-anchor="start" x="616.85" y="-86.2" font-family="Arial" font-size="14.00" fill="#666666">[integer]</text>
</g>
<!-- public.employee_projects&#45;&gt;public.projects -->
<g id="edge2" class="edge">
<title>public.employee_projects:project_id&#45;&gt;public.projects:project_id</title>
<path fill="none" stroke="black" d="M669.94,-463.44C682.77,-454.56 670.3,-424.57 659.04,-404.4 632.19,-356.28 581.31,-385.79 554.6,-337.6 534.3,-300.98 511.73,-243.4 553.6,-243.4"/>
<polygon fill="black" stroke="black" points="670.05,-463.41 659.24,-461.56 664.88,-464.75 660.69,-465.83 660.69,-465.83 660.69,-465.83 664.88,-464.75 661.49,-470.27 670.05,-463.41"/>
<text text-anchor="start" x="667.04" y="-476" font-family="Arial" font-size="10.00">FOREIGN KEY (project_id) REFERENCES projects(project_id)</text>
</g>
</g>
</svg>
