<?xml version="1.0" encoding="UTF-8" standalone="no"?>
<!DOCTYPE svg PUBLIC "-//W3C//DTD SVG 1.1//EN"
 "http://www.w3.org/Graphics/SVG/1.1/DTD/svg11.dtd">
<!-- Generated by graphviz version 12.1.2 (20240928.0832)
 -->
<!-- Title: public.clients Pages: 1 -->
<svg width="448pt" height="571pt"
 viewBox="0.00 0.00 447.75 571.20" xmlns="http://www.w3.org/2000/svg" xmlns:xlink="http://www.w3.org/1999/xlink">
<g id="graph0" class="graph" transform="scale(1 1) rotate(0) translate(4 567.2)">
<title>public.clients</title>
<polygon fill="white" stroke="none" points="-4,4 -4,-567.2 443.75,-567.2 443.75,4 -4,4"/>
<!-- public.clients -->
<g id="node1" class="node">
<title>public.clients</title>
<polygon fill="#efefef" stroke="none" points="156.58,-138.6 156.58,-174.2 391.55,-174.2 391.55,-138.6 156.58,-138.6"/>
<polygon fill="none" stroke="black" points="156.58,-138.6 156.58,-174.2 391.55,-174.2 391.55,-138.6 156.58,-138.6"/>
<text text-anchor="start" x="163.58" y="-152" font-family="Arial Bold" font-size="18.00">public.clients</text>
<text text-anchor="start" x="260.06" y="-152" font-family="Arial" font-size="14.00">    </text>
<text text-anchor="start" x="291.18" y="-152" font-family="Arial" font-size="14.00" fill="#666666">[BASE TABLE]</text>
<polygon fill="none" stroke="black" points="156.58,-107.8 156.58,-138.6 391.55,-138.6 391.55,-107.8 156.58,-107.8"/>
<text text-anchor="start" x="163.58" y="-120" font-family="Arial" font-size="14.00">client_id </text>
<text text-anchor="start" x="218.84" y="-120" font-family="Arial" font-size="14.00" fill="#666666">[integer]</text>
<polygon fill="none" stroke="black" points="156.58,-77 156.58,-107.8 391.55,-107.8 391.55,-77 156.58,-77"/>
<text text-anchor="start" x="163.58" y="-89.2" font-family="Arial" font-size="14.00">client_name </text>
<text text-anchor="start" x="242.96" y="-89.2" font-family="Arial" font-size="14.00" fill="#666666">[varchar(100)]</text>
<polygon fill="none" stroke="black" points="156.58,-46.2 156.58,-77 391.55,-77 391.55,-46.2 156.58,-46.2"/>
<text text-anchor="start" x="163.58" y="-58.4" font-family="Arial" font-size="14.00">contact_email </text>
<text text-anchor="start" x="253.85" y="-58.4" font-family="Arial" font-size="14.00" fill="#666666">[varchar(100)]</text>
<polygon fill="none" stroke="black" stroke-width="3" points="155.08,-44.7 155.08,-175.7 393.05,-175.7 393.05,-44.7 155.08,-44.7"/>
</g>
<!-- public.projects -->
<g id="node2" class="node">
<title>public.projects</title>
<polygon fill="#efefef" stroke="none" points="151.59,-484.4 151.59,-520 396.55,-520 396.55,-484.4 151.59,-484.4"/>
<polygon fill="none" stroke="black" points="151.59,-484.4 151.59,-520 396.55,-520 396.55,-484.4 151.59,-484.4"/>
<text text-anchor="start" x="158.59" y="-497.8" font-family="Arial Bold" font-size="18.00">public.projects</text>
<text text-anchor="start" x="265.06" y="-497.8" font-family="Arial" font-size="14.00">    </text>
<text text-anchor="start" x="296.18" y="-497.8" font-family="Arial" font-size="14.00" fill="#666666">[BASE TABLE]</text>
<polygon fill="none" stroke="black" points="151.59,-453.6 151.59,-484.4 396.55,-484.4 396.55,-453.6 151.59,-453.6"/>
<text text-anchor="start" x="158.59" y="-465.8" font-family="Arial" font-size="14.00">project_id </text>
<text text-anchor="start" x="223.18" y="-465.8" font-family="Arial" font-size="14.00" fill="#666666">[integer]</text>
<polygon fill="none" stroke="black" points="151.59,-422.8 151.59,-453.6 396.55,-453.6 396.55,-422.8 151.59,-422.8"/>
<text text-anchor="start" x="158.59" y="-435" font-family="Arial" font-size="14.00">project_name </text>
<text text-anchor="start" x="247.31" y="-435" font-family="Arial" font-size="14.00" fill="#666666">[varchar(100)]</text>
<polygon fill="none" stroke="black" points="151.59,-392 151.59,-422.8 396.55,-422.8 396.55,-392 151.59,-392"/>
<text text-anchor="start" x="158.59" y="-404.2" font-family="Arial" font-size="14.00">status </text>
<text text-anchor="start" x="199.83" y="-404.2" font-family="Arial" font-size="14.00" fill="#666666">[varchar(20)]</text>
<polygon fill="none" stroke="black" points="151.59,-361.2 151.59,-392 396.55,-392 396.55,-361.2 151.59,-361.2"/>
<text text-anchor="start" x="158.59" y="-373.4" font-family="Arial" font-size="14.00">start_date </text>
<text text-anchor="start" x="224.74" y="-373.4" font-family="Arial" font-size="14.00" fill="#666666">[date]</text>
<polygon fill="none" stroke="black" points="151.59,-330.4 151.59,-361.2 396.55,-361.2 396.55,-330.4 151.59,-330.4"/>
<text text-anchor="start" x="158.59" y="-342.6" font-family="Arial" font-size="14.00">end_date </text>
<text text-anchor="start" x="220.87" y="-342.6" font-family="Arial" font-size="14.00" fill="#666666">[date]</text>
<polygon fill="none" stroke="black" points="151.59,-299.6 151.59,-330.4 396.55,-330.4 396.55,-299.6 151.59,-299.6"/>
<text text-anchor="start" x="158.59" y="-311.8" font-family="Arial" font-size="14.00">client_id </text>
<text text-anchor="start" x="213.84" y="-311.8" font-family="Arial" font-size="14.00" fill="#666666">[integer]</text>
</g>
<!-- public.projects&#45;&gt;public.clients -->
<g id="edge1" class="edge">
<title>public.projects:client_id&#45;&gt;public.clients:client_id</title>
<path fill="none" stroke="black" d="M275,-288.29C284.46,-240.33 363.46,-272.2 391.55,-220.4 412.15,-182.42 435.75,-123.2 392.55,-123.2"/>
<polygon fill="black" stroke="black" points="275,-288.31 269.62,-297.86 274.52,-293.62 274.13,-297.93 274.13,-297.93 274.13,-297.93 274.52,-293.62 278.58,-298.67 275,-288.31"/>
<text text-anchor="start" x="7" y="-308.6" font-family="Arial" font-size="10.00">FOREIGN KEY (client_id) REFERENCES clients(client_id)</text>
</g>
</g>
</svg>
