<?xml version="1.0" encoding="UTF-8" standalone="no"?>
<!DOCTYPE svg PUBLIC "-//W3C//DTD SVG 1.1//EN"
 "http://www.w3.org/Graphics/SVG/1.1/DTD/svg11.dtd">
<!-- Generated by graphviz version 12.1.2 (20240928.0832)
 -->
<!-- Title: public.projects Pages: 1 -->
<svg width="772pt" height="914pt"
 viewBox="0.00 0.00 772.25 914.00" xmlns="http://www.w3.org/2000/svg" xmlns:xlink="http://www.w3.org/1999/xlink">
<g id="graph0" class="graph" transform="scale(1 1) rotate(0) translate(4 910)">
<title>public.projects</title>
<polygon fill="white" stroke="none" points="-4,4 -4,-910 768.25,-910 768.25,4 -4,4"/>
<!-- public.projects -->
<g id="node1" class="node">
<title>public.projects</title>
<polygon fill="#efefef" stroke="none" points="271.68,-481.4 271.68,-517 516.64,-517 516.64,-481.4 271.68,-481.4"/>
<polygon fill="none" stroke="black" points="271.68,-481.4 271.68,-517 516.64,-517 516.64,-481.4 271.68,-481.4"/>
<text text-anchor="start" x="278.68" y="-494.8" font-family="Arial Bold" font-size="18.00">public.projects</text>
<text text-anchor="start" x="385.16" y="-494.8" font-family="Arial" font-size="14.00">    </text>
<text text-anchor="start" x="416.27" y="-494.8" font-family="Arial" font-size="14.00" fill="#666666">[BASE TABLE]</text>
<polygon fill="none" stroke="black" points="271.68,-450.6 271.68,-481.4 516.64,-481.4 516.64,-450.6 271.68,-450.6"/>
<text text-anchor="start" x="278.68" y="-462.8" font-family="Arial" font-size="14.00">project_id </text>
<text text-anchor="start" x="343.28" y="-462.8" font-family="Arial" font-size="14.00" fill="#666666">[integer]</text>
<polygon fill="none" stroke="black" points="271.68,-419.8 271.68,-450.6 516.64,-450.6 516.64,-419.8 271.68,-419.8"/>
<text text-anchor="start" x="278.68" y="-432" font-family="Arial" font-size="14.00">project_name </text>
<text text-anchor="start" x="367.4" y="-432" font-family="Arial" font-size="14.00" fill="#666666">[varchar(100)]</text>
<polygon fill="none" stroke="black" points="271.68,-389 271.68,-419.8 516.64,-419.8 516.64,-389 271.68,-389"/>
<text text-anchor="start" x="278.68" y="-401.2" font-family="Arial" font-size="14.00">status </text>
<text text-anchor="start" x="319.93" y="-401.2" font-family="Arial" font-size="14.00" fill="#666666">[varchar(20)]</text>
<polygon fill="none" stroke="black" points="271.68,-358.2 271.68,-389 516.64,-389 516.64,-358.2 271.68,-358.2"/>
<text text-anchor="start" x="278.68" y="-370.4" font-family="Arial" font-size="14.00">start_date </text>
<text text-anchor="start" x="344.84" y="-370.4" font-family="Arial" font-size="14.00" fill="#666666">[date]</text>
<polygon fill="none" stroke="black" points="271.68,-327.4 271.68,-358.2 516.64,-358.2 516.64,-327.4 271.68,-327.4"/>
<text text-anchor="start" x="278.68" y="-339.6" font-family="Arial" font-size="14.00">end_date </text>
<text text-anchor="start" x="340.97" y="-339.6" font-family="Arial" font-size="14.00" fill="#666666">[date]</text>
<polygon fill="none" stroke="black" points="271.68,-296.6 271.68,-327.4 516.64,-327.4 516.64,-296.6 271.68,-296.6"/>
<text text-anchor="start" x="278.68" y="-308.8" font-family="Arial" font-size="14.00">client_id </text>
<text text-anchor="start" x="333.94" y="-308.8" font-family="Arial" font-size="14.00" fill="#666666">[integer]</text>
<polygon fill="none" stroke="black" stroke-width="3" points="270.18,-295.1 270.18,-518.5 518.14,-518.5 518.14,-295.1 270.18,-295.1"/>
</g>
<!-- public.clients -->
<g id="node4" class="node">
<title>public.clients</title>
<polygon fill="#efefef" stroke="none" points="276.68,-135.6 276.68,-171.2 511.65,-171.2 511.65,-135.6 276.68,-135.6"/>
<polygon fill="none" stroke="black" points="276.68,-135.6 276.68,-171.2 511.65,-171.2 511.65,-135.6 276.68,-135.6"/>
<text text-anchor="start" x="283.68" y="-149" font-family="Arial Bold" font-size="18.00">public.clients</text>
<text text-anchor="start" x="380.16" y="-149" font-family="Arial" font-size="14.00">    </text>
<text text-anchor="start" x="411.28" y="-149" font-family="Arial" font-size="14.00" fill="#666666">[BASE TABLE]</text>
<polygon fill="none" stroke="black" points="276.68,-104.8 276.68,-135.6 511.65,-135.6 511.65,-104.8 276.68,-104.8"/>
<text text-anchor="start" x="283.68" y="-117" font-family="Arial" font-size="14.00">client_id </text>
<text text-anchor="start" x="338.94" y="-117" font-family="Arial" font-size="14.00" fill="#666666">[integer]</text>
<polygon fill="none" stroke="black" points="276.68,-74 276.68,-104.8 511.65,-104.8 511.65,-74 276.68,-74"/>
<text text-anchor="start" x="283.68" y="-86.2" font-family="Arial" font-size="14.00">client_name </text>
<text text-anchor="start" x="363.06" y="-86.2" font-family="Arial" font-size="14.00" fill="#666666">[varchar(100)]</text>
<polygon fill="none" stroke="black" points="276.68,-43.2 276.68,-74 511.65,-74 511.65,-43.2 276.68,-43.2"/>
<text text-anchor="start" x="283.68" y="-55.4" font-family="Arial" font-size="14.00">contact_email </text>
<text text-anchor="start" x="373.95" y="-55.4" font-family="Arial" font-size="14.00" fill="#666666">[varchar(100)]</text>
</g>
<!-- public.projects&#45;&gt;public.clients -->
<g id="edge3" class="edge">
<title>public.projects:client_id&#45;&gt;public.clients:client_id</title>
<path fill="none" stroke="black" d="M395.04,-285.45C404.24,-236.29 483.62,-267.17 511.65,-214.4 531.29,-177.42 554.52,-120.2 512.65,-120.2"/>
<polygon fill="black" stroke="black" points="395.05,-285.3 389.71,-294.88 394.59,-290.62 394.22,-294.93 394.22,-294.93 394.22,-294.93 394.59,-290.62 398.68,-295.65 395.05,-285.3"/>
<text text-anchor="start" x="127.1" y="-305.6" font-family="Arial" font-size="10.00">FOREIGN KEY (client_id) REFERENCES clients(client_id)</text>
</g>
<!-- public.employee_projects -->
<g id="node2" class="node">
<title>public.employee_projects</title>
<polygon fill="#efefef" stroke="none" points="43.2,-765.6 43.2,-801.2 367.13,-801.2 367.13,-765.6 43.2,-765.6"/>
<polygon fill="none" stroke="black" points="43.2,-765.6 43.2,-801.2 367.13,-801.2 367.13,-765.6 43.2,-765.6"/>
<text text-anchor="start" x="50.2" y="-779" font-family="Arial Bold" font-size="18.00">public.employee_projects</text>
<text text-anchor="start" x="235.64" y="-779" font-family="Arial" font-size="14.00">    </text>
<text text-anchor="start" x="266.76" y="-779" font-family="Arial" font-size="14.00" fill="#666666">[BASE TABLE]</text>
<polygon fill="none" stroke="black" points="43.2,-734.8 43.2,-765.6 367.13,-765.6 367.13,-734.8 43.2,-734.8"/>
<text text-anchor="start" x="50.2" y="-747" font-family="Arial" font-size="14.00">employee_id </text>
<text text-anchor="start" x="133.48" y="-747" font-family="Arial" font-size="14.00" fill="#666666">[integer]</text>
<polygon fill="none" stroke="black" points="43.2,-704 43.2,-734.8 367.13,-734.8 367.13,-704 43.2,-704"/>
<text text-anchor="start" x="50.2" y="-716.2" font-family="Arial" font-size="14.00">project_id </text>
<text text-anchor="start" x="114.79" y="-716.2" font-family="Arial" font-size="14.00" fill="#666666">[integer]</text>
</g>
<!-- public.employee_projects&#45;&gt;public.projects -->
<g id="edge1" class="edge">
<title>public.employee_projects:project_id&#45;&gt;public.projects:project_id</title>
<path fill="none" stroke="black" d="M378,-716.57C388.54,-707.83 375.44,-680.7 367.13,-660.8 343.75,-604.82 294.88,-619.26 271.68,-563.2 255.17,-523.28 227.48,-466 270.68,-466"/>
<polygon fill="black" stroke="black" points="378.06,-716.55 367.21,-714.98 372.94,-718.02 368.77,-719.22 368.77,-719.22 368.77,-719.22 372.94,-718.02 369.69,-723.63 378.06,-716.55"/>
<text text-anchor="start" x="375.13" y="-729.4" font-family="Arial" font-size="10.00">FOREIGN KEY (project_id) REFERENCES projects(project_id)</text>
</g>
<!-- public.tasks -->
<g id="node3" class="node">
<title>public.tasks</title>
<polygon fill="#efefef" stroke="none" points="471.17,-827.2 471.17,-862.8 695.16,-862.8 695.16,-827.2 471.17,-827.2"/>
<polygon fill="none" stroke="black" points="471.17,-827.2 471.17,-862.8 695.16,-862.8 695.16,-827.2 471.17,-827.2"/>
<text text-anchor="start" x="478.17" y="-840.6" font-family="Arial Bold" font-size="18.00">public.tasks</text>
<text text-anchor="start" x="563.67" y="-840.6" font-family="Arial" font-size="14.00">    </text>
<text text-anchor="start" x="594.78" y="-840.6" font-family="Arial" font-size="14.00" fill="#666666">[BASE TABLE]</text>
<polygon fill="none" stroke="black" points="471.17,-796.4 471.17,-827.2 695.16,-827.2 695.16,-796.4 471.17,-796.4"/>
<text text-anchor="start" x="478.17" y="-808.6" font-family="Arial" font-size="14.00">task_id </text>
<text text-anchor="start" x="526.42" y="-808.6" font-family="Arial" font-size="14.00" fill="#666666">[integer]</text>
<polygon fill="none" stroke="black" points="471.17,-765.6 471.17,-796.4 695.16,-796.4 695.16,-765.6 471.17,-765.6"/>
<text text-anchor="start" x="478.17" y="-777.8" font-family="Arial" font-size="14.00">task_name </text>
<text text-anchor="start" x="550.55" y="-777.8" font-family="Arial" font-size="14.00" fill="#666666">[varchar(100)]</text>
<polygon fill="none" stroke="black" points="471.17,-734.8 471.17,-765.6 695.16,-765.6 695.16,-734.8 471.17,-734.8"/>
<text text-anchor="start" x="478.17" y="-747" font-family="Arial" font-size="14.00">due_date </text>
<text text-anchor="start" x="540.46" y="-747" font-family="Arial" font-size="14.00" fill="#666666">[date]</text>
<polygon fill="none" stroke="black" points="471.17,-704 471.17,-734.8 695.16,-734.8 695.16,-704 471.17,-704"/>
<text text-anchor="start" x="478.17" y="-716.2" font-family="Arial" font-size="14.00">priority </text>
<text text-anchor="start" x="524.07" y="-716.2" font-family="Arial" font-size="14.00" fill="#666666">[varchar(10)]</text>
<polygon fill="none" stroke="black" points="471.17,-673.2 471.17,-704 695.16,-704 695.16,-673.2 471.17,-673.2"/>
<text text-anchor="start" x="478.17" y="-685.4" font-family="Arial" font-size="14.00">project_id </text>
<text text-anchor="start" x="542.77" y="-685.4" font-family="Arial" font-size="14.00" fill="#666666">[integer]</text>
<polygon fill="none" stroke="black" points="471.17,-642.4 471.17,-673.2 695.16,-673.2 695.16,-642.4 471.17,-642.4"/>
<text text-anchor="start" x="478.17" y="-654.6" font-family="Arial" font-size="14.00">assigned_to </text>
<text text-anchor="start" x="557.57" y="-654.6" font-family="Arial" font-size="14.00" fill="#666666">[integer]</text>
</g>
<!-- public.tasks&#45;&gt;public.projects -->
<g id="edge2" class="edge">
<title>public.tasks:project_id&#45;&gt;public.projects:project_id</title>
<path fill="none" stroke="black" d="M459.94,-687.01C435.1,-677.87 455.45,-631.25 471.17,-599.2 482.53,-576.06 505.3,-586.35 516.64,-563.2 535.66,-524.41 560.85,-466 517.64,-466"/>
<polygon fill="black" stroke="black" points="459.96,-687.02 469.15,-693 465.23,-687.83 469.51,-688.5 469.51,-688.5 469.51,-688.5 465.23,-687.83 470.53,-684.1 459.96,-687.02"/>
<text text-anchor="start" x="477.17" y="-698.6" font-family="Arial" font-size="10.00">FOREIGN KEY (project_id) REFERENCES projects(project_id)</text>
</g>
</g>
</svg>
