<?xml version="1.0" encoding="UTF-8" standalone="no"?>
<!DOCTYPE svg PUBLIC "-//W3C//DTD SVG 1.1//EN"
 "http://www.w3.org/Graphics/SVG/1.1/DTD/svg11.dtd">
<!-- Generated by graphviz version 12.1.2 (20240928.0832)
 -->
<!-- Title: public.tasks Pages: 1 -->
<svg width="859pt" height="725pt"
 viewBox="0.00 0.00 859.40 725.20" xmlns="http://www.w3.org/2000/svg" xmlns:xlink="http://www.w3.org/1999/xlink">
<g id="graph0" class="graph" transform="scale(1 1) rotate(0) translate(4 721.2)">
<title>public.tasks</title>
<polygon fill="white" stroke="none" points="-4,4 -4,-721.2 855.4,-721.2 855.4,4 -4,4"/>
<!-- public.tasks -->
<g id="node1" class="node">
<title>public.tasks</title>
<polygon fill="#efefef" stroke="none" points="295.08,-635.4 295.08,-671 519.06,-671 519.06,-635.4 295.08,-635.4"/>
<polygon fill="none" stroke="black" points="295.08,-635.4 295.08,-671 519.06,-671 519.06,-635.4 295.08,-635.4"/>
<text text-anchor="start" x="302.08" y="-648.8" font-family="Arial Bold" font-size="18.00">public.tasks</text>
<text text-anchor="start" x="387.57" y="-648.8" font-family="Arial" font-size="14.00">    </text>
<text text-anchor="start" x="418.69" y="-648.8" font-family="Arial" font-size="14.00" fill="#666666">[BASE TABLE]</text>
<polygon fill="none" stroke="black" points="295.08,-604.6 295.08,-635.4 519.06,-635.4 519.06,-604.6 295.08,-604.6"/>
<text text-anchor="start" x="302.08" y="-616.8" font-family="Arial" font-size="14.00">task_id </text>
<text text-anchor="start" x="350.33" y="-616.8" font-family="Arial" font-size="14.00" fill="#666666">[integer]</text>
<polygon fill="none" stroke="black" points="295.08,-573.8 295.08,-604.6 519.06,-604.6 519.06,-573.8 295.08,-573.8"/>
<text text-anchor="start" x="302.08" y="-586" font-family="Arial" font-size="14.00">task_name </text>
<text text-anchor="start" x="374.45" y="-586" font-family="Arial" font-size="14.00" fill="#666666">[varchar(100)]</text>
<polygon fill="none" stroke="black" points="295.08,-543 295.08,-573.8 519.06,-573.8 519.06,-543 295.08,-543"/>
<text text-anchor="start" x="302.08" y="-555.2" font-family="Arial" font-size="14.00">due_date </text>
<text text-anchor="start" x="364.36" y="-555.2" font-family="Arial" font-size="14.00" fill="#666666">[date]</text>
<polygon fill="none" stroke="black" points="295.08,-512.2 295.08,-543 519.06,-543 519.06,-512.2 295.08,-512.2"/>
<text text-anchor="start" x="302.08" y="-524.4" font-family="Arial" font-size="14.00">priority </text>
<text text-anchor="start" x="347.97" y="-524.4" font-family="Arial" font-size="14.00" fill="#666666">[varchar(10)]</text>
<polygon fill="none" stroke="black" points="295.08,-481.4 295.08,-512.2 519.06,-512.2 519.06,-481.4 295.08,-481.4"/>
<text text-anchor="start" x="302.08" y="-493.6" font-family="Arial" font-size="14.00">project_id </text>
<text text-anchor="start" x="366.67" y="-493.6" font-family="Arial" font-size="14.00" fill="#666666">[integer]</text>
<polygon fill="none" stroke="black" points="295.08,-450.6 295.08,-481.4 519.06,-481.4 519.06,-450.6 295.08,-450.6"/>
<text text-anchor="start" x="302.08" y="-462.8" font-family="Arial" font-size="14.00">assigned_to </text>
<text text-anchor="start" x="381.47" y="-462.8" font-family="Arial" font-size="14.00" fill="#666666">[integer]</text>
<polygon fill="none" stroke="black" stroke-width="3" points="293.58,-449.1 293.58,-672.5 520.56,-672.5 520.56,-449.1 293.58,-449.1"/>
</g>
<!-- public.projects -->
<g id="node2" class="node">
<title>public.projects</title>
<polygon fill="#efefef" stroke="none" points="105.59,-258.8 105.59,-294.4 350.55,-294.4 350.55,-258.8 105.59,-258.8"/>
<polygon fill="none" stroke="black" points="105.59,-258.8 105.59,-294.4 350.55,-294.4 350.55,-258.8 105.59,-258.8"/>
<text text-anchor="start" x="112.59" y="-272.2" font-family="Arial Bold" font-size="18.00">public.projects</text>
<text text-anchor="start" x="219.06" y="-272.2" font-family="Arial" font-size="14.00">    </text>
<text text-anchor="start" x="250.18" y="-272.2" font-family="Arial" font-size="14.00" fill="#666666">[BASE TABLE]</text>
<polygon fill="none" stroke="black" points="105.59,-228 105.59,-258.8 350.55,-258.8 350.55,-228 105.59,-228"/>
<text text-anchor="start" x="112.59" y="-240.2" font-family="Arial" font-size="14.00">project_id </text>
<text text-anchor="start" x="177.18" y="-240.2" font-family="Arial" font-size="14.00" fill="#666666">[integer]</text>
<polygon fill="none" stroke="black" points="105.59,-197.2 105.59,-228 350.55,-228 350.55,-197.2 105.59,-197.2"/>
<text text-anchor="start" x="112.59" y="-209.4" font-family="Arial" font-size="14.00">project_name </text>
<text text-anchor="start" x="201.31" y="-209.4" font-family="Arial" font-size="14.00" fill="#666666">[varchar(100)]</text>
<polygon fill="none" stroke="black" points="105.59,-166.4 105.59,-197.2 350.55,-197.2 350.55,-166.4 105.59,-166.4"/>
<text text-anchor="start" x="112.59" y="-178.6" font-family="Arial" font-size="14.00">status </text>
<text text-anchor="start" x="153.83" y="-178.6" font-family="Arial" font-size="14.00" fill="#666666">[varchar(20)]</text>
<polygon fill="none" stroke="black" points="105.59,-135.6 105.59,-166.4 350.55,-166.4 350.55,-135.6 105.59,-135.6"/>
<text text-anchor="start" x="112.59" y="-147.8" font-family="Arial" font-size="14.00">start_date </text>
<text text-anchor="start" x="178.74" y="-147.8" font-family="Arial" font-size="14.00" fill="#666666">[date]</text>
<polygon fill="none" stroke="black" points="105.59,-104.8 105.59,-135.6 350.55,-135.6 350.55,-104.8 105.59,-104.8"/>
<text text-anchor="start" x="112.59" y="-117" font-family="Arial" font-size="14.00">end_date </text>
<text text-anchor="start" x="174.87" y="-117" font-family="Arial" font-size="14.00" fill="#666666">[date]</text>
<polygon fill="none" stroke="black" points="105.59,-74 105.59,-104.8 350.55,-104.8 350.55,-74 105.59,-74"/>
<text text-anchor="start" x="112.59" y="-86.2" font-family="Arial" font-size="14.00">client_id </text>
<text text-anchor="start" x="167.84" y="-86.2" font-family="Arial" font-size="14.00" fill="#666666">[integer]</text>
</g>
<!-- public.tasks&#45;&gt;public.projects -->
<g id="edge1" class="edge">
<title>public.tasks:project_id&#45;&gt;public.projects:project_id</title>
<path fill="none" stroke="black" d="M283.94,-495.32C258.33,-486.43 282.3,-439.19 295.08,-404.4 308.38,-368.17 337.25,-373.83 350.55,-337.6 364.98,-298.3 393.42,-243.4 351.55,-243.4"/>
<polygon fill="black" stroke="black" points="283.85,-495.31 293.1,-501.2 289.13,-496.08 293.42,-496.7 293.42,-496.7 293.42,-496.7 289.13,-496.08 294.4,-492.3 283.85,-495.31"/>
<text text-anchor="start" x="7" y="-506.8" font-family="Arial" font-size="10.00">FOREIGN KEY (project_id) REFERENCES projects(project_id)</text>
</g>
<!-- public.employees -->
<g id="node3" class="node">
<title>public.employees</title>
<polygon fill="#efefef" stroke="none" points="454.59,-289.6 454.59,-325.2 719.55,-325.2 719.55,-289.6 454.59,-289.6"/>
<polygon fill="none" stroke="black" points="454.59,-289.6 454.59,-325.2 719.55,-325.2 719.55,-289.6 454.59,-289.6"/>
<text text-anchor="start" x="461.59" y="-303" font-family="Arial Bold" font-size="18.00">public.employees</text>
<text text-anchor="start" x="588.06" y="-303" font-family="Arial" font-size="14.00">    </text>
<text text-anchor="start" x="619.17" y="-303" font-family="Arial" font-size="14.00" fill="#666666">[BASE TABLE]</text>
<polygon fill="none" stroke="black" points="454.59,-258.8 454.59,-289.6 719.55,-289.6 719.55,-258.8 454.59,-258.8"/>
<text text-anchor="start" x="461.59" y="-271" font-family="Arial" font-size="14.00">employee_id </text>
<text text-anchor="start" x="544.87" y="-271" font-family="Arial" font-size="14.00" fill="#666666">[integer]</text>
<polygon fill="none" stroke="black" points="454.59,-228 454.59,-258.8 719.55,-258.8 719.55,-228 454.59,-228"/>
<text text-anchor="start" x="461.59" y="-240.2" font-family="Arial" font-size="14.00">first_name </text>
<text text-anchor="start" x="530.84" y="-240.2" font-family="Arial" font-size="14.00" fill="#666666">[varchar(50)]</text>
<polygon fill="none" stroke="black" points="454.59,-197.2 454.59,-228 719.55,-228 719.55,-197.2 454.59,-197.2"/>
<text text-anchor="start" x="461.59" y="-209.4" font-family="Arial" font-size="14.00">last_name </text>
<text text-anchor="start" x="530.07" y="-209.4" font-family="Arial" font-size="14.00" fill="#666666">[varchar(50)]</text>
<polygon fill="none" stroke="black" points="454.59,-166.4 454.59,-197.2 719.55,-197.2 719.55,-166.4 454.59,-166.4"/>
<text text-anchor="start" x="461.59" y="-178.6" font-family="Arial" font-size="14.00">email </text>
<text text-anchor="start" x="498.94" y="-178.6" font-family="Arial" font-size="14.00" fill="#666666">[varchar(100)]</text>
<polygon fill="none" stroke="black" points="454.59,-135.6 454.59,-166.4 719.55,-166.4 719.55,-135.6 454.59,-135.6"/>
<text text-anchor="start" x="461.59" y="-147.8" font-family="Arial" font-size="14.00">hire_date </text>
<text text-anchor="start" x="523.86" y="-147.8" font-family="Arial" font-size="14.00" fill="#666666">[date]</text>
<polygon fill="none" stroke="black" points="454.59,-104.8 454.59,-135.6 719.55,-135.6 719.55,-104.8 454.59,-104.8"/>
<text text-anchor="start" x="461.59" y="-117" font-family="Arial" font-size="14.00">salary </text>
<text text-anchor="start" x="502.83" y="-117" font-family="Arial" font-size="14.00" fill="#666666">[numeric(10,2)]</text>
<polygon fill="none" stroke="black" points="454.59,-74 454.59,-104.8 719.55,-104.8 719.55,-74 454.59,-74"/>
<text text-anchor="start" x="461.59" y="-86.2" font-family="Arial" font-size="14.00">department_id </text>
<text text-anchor="start" x="554.98" y="-86.2" font-family="Arial" font-size="14.00" fill="#666666">[integer]</text>
<polygon fill="none" stroke="black" points="454.59,-43.2 454.59,-74 719.55,-74 719.55,-43.2 454.59,-43.2"/>
<text text-anchor="start" x="461.59" y="-55.4" font-family="Arial" font-size="14.00">manager_id </text>
<text text-anchor="start" x="539.42" y="-55.4" font-family="Arial" font-size="14.00" fill="#666666">[integer]</text>
</g>
<!-- public.tasks&#45;&gt;public.employees -->
<g id="edge2" class="edge">
<title>public.tasks:assigned_to&#45;&gt;public.employees:employee_id</title>
<path fill="none" stroke="black" d="M530,-463.41C542.97,-454.45 530.91,-424.23 519.06,-404.4 502.22,-376.23 471.35,-396.61 454.59,-368.4 433.21,-332.4 411.72,-274.2 453.59,-274.2"/>
<polygon fill="black" stroke="black" points="530.06,-463.39 519.25,-461.56 524.9,-464.74 520.71,-465.83 520.71,-465.83 520.71,-465.83 524.9,-464.74 521.52,-470.27 530.06,-463.39"/>
<text text-anchor="start" x="527.06" y="-476" font-family="Arial" font-size="10.00">FOREIGN KEY (assigned_to) REFERENCES employees(employee_id)</text>
</g>
</g>
</svg>
