<?xml version="1.0" encoding="UTF-8" standalone="no"?>
<!DOCTYPE svg PUBLIC "-//W3C//DTD SVG 1.1//EN"
 "http://www.w3.org/Graphics/SVG/1.1/DTD/svg11.dtd">
<!-- Generated by graphviz version 12.1.2 (20240928.0832)
 -->
<!-- Title: public.departments Pages: 1 -->
<svg width="822pt" height="664pt"
 viewBox="0.00 0.00 822.12 663.60" xmlns="http://www.w3.org/2000/svg" xmlns:xlink="http://www.w3.org/1999/xlink">
<g id="graph0" class="graph" transform="scale(1 1) rotate(0) translate(4 659.6)">
<title>public.departments</title>
<polygon fill="white" stroke="none" points="-4,4 -4,-659.6 818.12,-659.6 818.12,4 -4,4"/>
<!-- public.departments -->
<g id="node1" class="node">
<title>public.departments</title>
<polygon fill="#efefef" stroke="none" points="270.34,-169.4 270.34,-205 546.29,-205 546.29,-169.4 270.34,-169.4"/>
<polygon fill="none" stroke="black" points="270.34,-169.4 270.34,-205 546.29,-205 546.29,-169.4 270.34,-169.4"/>
<text text-anchor="start" x="277.34" y="-182.8" font-family="Arial Bold" font-size="18.00">public.departments</text>
<text text-anchor="start" x="414.8" y="-182.8" font-family="Arial" font-size="14.00">    </text>
<text text-anchor="start" x="445.92" y="-182.8" font-family="Arial" font-size="14.00" fill="#666666">[BASE TABLE]</text>
<polygon fill="none" stroke="black" points="270.34,-138.6 270.34,-169.4 546.29,-169.4 546.29,-138.6 270.34,-138.6"/>
<text text-anchor="start" x="277.34" y="-150.8" font-family="Arial" font-size="14.00">department_id </text>
<text text-anchor="start" x="370.73" y="-150.8" font-family="Arial" font-size="14.00" fill="#666666">[integer]</text>
<polygon fill="none" stroke="black" points="270.34,-107.8 270.34,-138.6 546.29,-138.6 546.29,-107.8 270.34,-107.8"/>
<text text-anchor="start" x="277.34" y="-120" font-family="Arial" font-size="14.00">department_name </text>
<text text-anchor="start" x="394.86" y="-120" font-family="Arial" font-size="14.00" fill="#666666">[varchar(50)]</text>
<polygon fill="none" stroke="black" points="270.34,-77 270.34,-107.8 546.29,-107.8 546.29,-77 270.34,-77"/>
<text text-anchor="start" x="277.34" y="-89.2" font-family="Arial" font-size="14.00">department_code </text>
<text text-anchor="start" x="390.19" y="-89.2" font-family="Arial" font-size="14.00" fill="#666666">[varchar(10)]</text>
<polygon fill="none" stroke="black" points="270.34,-46.2 270.34,-77 546.29,-77 546.29,-46.2 270.34,-46.2"/>
<text text-anchor="start" x="277.34" y="-58.4" font-family="Arial" font-size="14.00">location </text>
<text text-anchor="start" x="329.48" y="-58.4" font-family="Arial" font-size="14.00" fill="#666666">[varchar(50)]</text>
<polygon fill="none" stroke="black" stroke-width="3" points="268.84,-44.7 268.84,-206.5 547.79,-206.5 547.79,-44.7 268.84,-44.7"/>
</g>
<!-- public.employees -->
<g id="node2" class="node">
<title>public.employees</title>
<polygon fill="#efefef" stroke="none" points="89.84,-576.8 89.84,-612.4 354.79,-612.4 354.79,-576.8 89.84,-576.8"/>
<polygon fill="none" stroke="black" points="89.84,-576.8 89.84,-612.4 354.79,-612.4 354.79,-576.8 89.84,-576.8"/>
<text text-anchor="start" x="96.84" y="-590.2" font-family="Arial Bold" font-size="18.00">public.employees</text>
<text text-anchor="start" x="223.3" y="-590.2" font-family="Arial" font-size="14.00">    </text>
<text text-anchor="start" x="254.42" y="-590.2" font-family="Arial" font-size="14.00" fill="#666666">[BASE TABLE]</text>
<polygon fill="none" stroke="black" points="89.84,-546 89.84,-576.8 354.79,-576.8 354.79,-546 89.84,-546"/>
<text text-anchor="start" x="96.84" y="-558.2" font-family="Arial" font-size="14.00">employee_id </text>
<text text-anchor="start" x="180.11" y="-558.2" font-family="Arial" font-size="14.00" fill="#666666">[integer]</text>
<polygon fill="none" stroke="black" points="89.84,-515.2 89.84,-546 354.79,-546 354.79,-515.2 89.84,-515.2"/>
<text text-anchor="start" x="96.84" y="-527.4" font-family="Arial" font-size="14.00">first_name </text>
<text text-anchor="start" x="166.08" y="-527.4" font-family="Arial" font-size="14.00" fill="#666666">[varchar(50)]</text>
<polygon fill="none" stroke="black" points="89.84,-484.4 89.84,-515.2 354.79,-515.2 354.79,-484.4 89.84,-484.4"/>
<text text-anchor="start" x="96.84" y="-496.6" font-family="Arial" font-size="14.00">last_name </text>
<text text-anchor="start" x="165.32" y="-496.6" font-family="Arial" font-size="14.00" fill="#666666">[varchar(50)]</text>
<polygon fill="none" stroke="black" points="89.84,-453.6 89.84,-484.4 354.79,-484.4 354.79,-453.6 89.84,-453.6"/>
<text text-anchor="start" x="96.84" y="-465.8" font-family="Arial" font-size="14.00">email </text>
<text text-anchor="start" x="134.18" y="-465.8" font-family="Arial" font-size="14.00" fill="#666666">[varchar(100)]</text>
<polygon fill="none" stroke="black" points="89.84,-422.8 89.84,-453.6 354.79,-453.6 354.79,-422.8 89.84,-422.8"/>
<text text-anchor="start" x="96.84" y="-435" font-family="Arial" font-size="14.00">hire_date </text>
<text text-anchor="start" x="159.11" y="-435" font-family="Arial" font-size="14.00" fill="#666666">[date]</text>
<polygon fill="none" stroke="black" points="89.84,-392 89.84,-422.8 354.79,-422.8 354.79,-392 89.84,-392"/>
<text text-anchor="start" x="96.84" y="-404.2" font-family="Arial" font-size="14.00">salary </text>
<text text-anchor="start" x="138.07" y="-404.2" font-family="Arial" font-size="14.00" fill="#666666">[numeric(10,2)]</text>
<polygon fill="none" stroke="black" points="89.84,-361.2 89.84,-392 354.79,-392 354.79,-361.2 89.84,-361.2"/>
<text text-anchor="start" x="96.84" y="-373.4" font-family="Arial" font-size="14.00">department_id </text>
<text text-anchor="start" x="190.23" y="-373.4" font-family="Arial" font-size="14.00" fill="#666666">[integer]</text>
<polygon fill="none" stroke="black" points="89.84,-330.4 89.84,-361.2 354.79,-361.2 354.79,-330.4 89.84,-330.4"/>
<text text-anchor="start" x="96.84" y="-342.6" font-family="Arial" font-size="14.00">manager_id </text>
<text text-anchor="start" x="174.66" y="-342.6" font-family="Arial" font-size="14.00" fill="#666666">[integer]</text>
</g>
<!-- public.employees&#45;&gt;public.departments -->
<g id="edge1" class="edge">
<title>public.employees:department_id&#45;&gt;public.departments:department_id</title>
<path fill="none" stroke="black" d="M365.81,-375.06C391.85,-365.81 374.73,-317 354.79,-287.2 332.11,-253.28 293.01,-285.13 270.34,-251.2 246.34,-215.28 226.14,-154 269.34,-154"/>
<polygon fill="black" stroke="black" points="366.01,-375.03 355.44,-372.1 360.73,-375.84 356.45,-376.5 356.45,-376.5 356.45,-376.5 360.73,-375.84 356.81,-381 366.01,-375.03"/>
<text text-anchor="start" x="7" y="-386.6" font-family="Arial" font-size="10.00">FOREIGN KEY (department_id) REFERENCES departments(department_id)</text>
</g>
<!-- public.job_history -->
<g id="node3" class="node">
<title>public.job_history</title>
<polygon fill="#efefef" stroke="none" points="459.32,-515.2 459.32,-550.8 729.31,-550.8 729.31,-515.2 459.32,-515.2"/>
<polygon fill="none" stroke="black" points="459.32,-515.2 459.32,-550.8 729.31,-550.8 729.31,-515.2 459.32,-515.2"/>
<text text-anchor="start" x="466.32" y="-528.6" font-family="Arial Bold" font-size="18.00">public.job_history</text>
<text text-anchor="start" x="597.82" y="-528.6" font-family="Arial" font-size="14.00">    </text>
<text text-anchor="start" x="628.93" y="-528.6" font-family="Arial" font-size="14.00" fill="#666666">[BASE TABLE]</text>
<polygon fill="none" stroke="black" points="459.32,-484.4 459.32,-515.2 729.31,-515.2 729.31,-484.4 459.32,-484.4"/>
<text text-anchor="start" x="466.32" y="-496.6" font-family="Arial" font-size="14.00">employee_id </text>
<text text-anchor="start" x="549.6" y="-496.6" font-family="Arial" font-size="14.00" fill="#666666">[integer]</text>
<polygon fill="none" stroke="black" points="459.32,-453.6 459.32,-484.4 729.31,-484.4 729.31,-453.6 459.32,-453.6"/>
<text text-anchor="start" x="466.32" y="-465.8" font-family="Arial" font-size="14.00">department_id </text>
<text text-anchor="start" x="559.72" y="-465.8" font-family="Arial" font-size="14.00" fill="#666666">[integer]</text>
<polygon fill="none" stroke="black" points="459.32,-422.8 459.32,-453.6 729.31,-453.6 729.31,-422.8 459.32,-422.8"/>
<text text-anchor="start" x="466.32" y="-435" font-family="Arial" font-size="14.00">start_date </text>
<text text-anchor="start" x="532.47" y="-435" font-family="Arial" font-size="14.00" fill="#666666">[date]</text>
<polygon fill="none" stroke="black" points="459.32,-392 459.32,-422.8 729.31,-422.8 729.31,-392 459.32,-392"/>
<text text-anchor="start" x="466.32" y="-404.2" font-family="Arial" font-size="14.00">end_date </text>
<text text-anchor="start" x="528.61" y="-404.2" font-family="Arial" font-size="14.00" fill="#666666">[date]</text>
</g>
<!-- public.job_history&#45;&gt;public.departments -->
<g id="edge2" class="edge">
<title>public.job_history:department_id&#45;&gt;public.departments:department_id</title>
<path fill="none" stroke="black" d="M448.33,-467.99C409.77,-459.21 441.45,-395.14 459.32,-348.8 480.23,-294.59 525.33,-305.39 546.29,-251.2 561.87,-210.91 590.49,-154 547.29,-154"/>
<polygon fill="black" stroke="black" points="448.04,-467.96 457.54,-473.44 453.35,-468.5 457.66,-468.93 457.66,-468.93 457.66,-468.93 453.35,-468.5 458.44,-464.49 448.04,-467.96"/>
<text text-anchor="start" x="465.32" y="-479" font-family="Arial" font-size="10.00">FOREIGN KEY (department_id) REFERENCES departments(department_id)</text>
</g>
</g>
</svg>
