<?xml version="1.0" encoding="UTF-8" standalone="no"?>
<!DOCTYPE svg PUBLIC "-//W3C//DTD SVG 1.1//EN"
 "http://www.w3.org/Graphics/SVG/1.1/DTD/svg11.dtd">
<!-- Generated by graphviz version 12.1.2 (20240928.0832)
 -->
<!-- Title: public.job_history Pages: 1 -->
<svg width="970pt" height="664pt"
 viewBox="0.00 0.00 969.89 663.60" xmlns="http://www.w3.org/2000/svg" xmlns:xlink="http://www.w3.org/1999/xlink">
<g id="graph0" class="graph" transform="scale(1 1) rotate(0) translate(4 659.6)">
<title>public.job_history</title>
<polygon fill="white" stroke="none" points="-4,4 -4,-659.6 965.89,-659.6 965.89,4 -4,4"/>
<!-- public.job_history -->
<g id="node1" class="node">
<title>public.job_history</title>
<polygon fill="#efefef" stroke="none" points="335.11,-573.8 335.11,-609.4 605.09,-609.4 605.09,-573.8 335.11,-573.8"/>
<polygon fill="none" stroke="black" points="335.11,-573.8 335.11,-609.4 605.09,-609.4 605.09,-573.8 335.11,-573.8"/>
<text text-anchor="start" x="342.11" y="-587.2" font-family="Arial Bold" font-size="18.00">public.job_history</text>
<text text-anchor="start" x="473.61" y="-587.2" font-family="Arial" font-size="14.00">    </text>
<text text-anchor="start" x="504.72" y="-587.2" font-family="Arial" font-size="14.00" fill="#666666">[BASE TABLE]</text>
<polygon fill="none" stroke="black" points="335.11,-543 335.11,-573.8 605.09,-573.8 605.09,-543 335.11,-543"/>
<text text-anchor="start" x="342.11" y="-555.2" font-family="Arial" font-size="14.00">employee_id </text>
<text text-anchor="start" x="425.39" y="-555.2" font-family="Arial" font-size="14.00" fill="#666666">[integer]</text>
<polygon fill="none" stroke="black" points="335.11,-512.2 335.11,-543 605.09,-543 605.09,-512.2 335.11,-512.2"/>
<text text-anchor="start" x="342.11" y="-524.4" font-family="Arial" font-size="14.00">department_id </text>
<text text-anchor="start" x="435.5" y="-524.4" font-family="Arial" font-size="14.00" fill="#666666">[integer]</text>
<polygon fill="none" stroke="black" points="335.11,-481.4 335.11,-512.2 605.09,-512.2 605.09,-481.4 335.11,-481.4"/>
<text text-anchor="start" x="342.11" y="-493.6" font-family="Arial" font-size="14.00">start_date </text>
<text text-anchor="start" x="408.26" y="-493.6" font-family="Arial" font-size="14.00" fill="#666666">[date]</text>
<polygon fill="none" stroke="black" points="335.11,-450.6 335.11,-481.4 605.09,-481.4 605.09,-450.6 335.11,-450.6"/>
<text text-anchor="start" x="342.11" y="-462.8" font-family="Arial" font-size="14.00">end_date </text>
<text text-anchor="start" x="404.39" y="-462.8" font-family="Arial" font-size="14.00" fill="#666666">[date]</text>
<polygon fill="none" stroke="black" stroke-width="3" points="333.61,-449.1 333.61,-610.9 606.59,-610.9 606.59,-449.1 333.61,-449.1"/>
</g>
<!-- public.employees -->
<g id="node2" class="node">
<title>public.employees</title>
<polygon fill="#efefef" stroke="none" points="150.63,-289.6 150.63,-325.2 415.58,-325.2 415.58,-289.6 150.63,-289.6"/>
<polygon fill="none" stroke="black" points="150.63,-289.6 150.63,-325.2 415.58,-325.2 415.58,-289.6 150.63,-289.6"/>
<text text-anchor="start" x="157.63" y="-303" font-family="Arial Bold" font-size="18.00">public.employees</text>
<text text-anchor="start" x="284.09" y="-303" font-family="Arial" font-size="14.00">    </text>
<text text-anchor="start" x="315.21" y="-303" font-family="Arial" font-size="14.00" fill="#666666">[BASE TABLE]</text>
<polygon fill="none" stroke="black" points="150.63,-258.8 150.63,-289.6 415.58,-289.6 415.58,-258.8 150.63,-258.8"/>
<text text-anchor="start" x="157.63" y="-271" font-family="Arial" font-size="14.00">employee_id </text>
<text text-anchor="start" x="240.9" y="-271" font-family="Arial" font-size="14.00" fill="#666666">[integer]</text>
<polygon fill="none" stroke="black" points="150.63,-228 150.63,-258.8 415.58,-258.8 415.58,-228 150.63,-228"/>
<text text-anchor="start" x="157.63" y="-240.2" font-family="Arial" font-size="14.00">first_name </text>
<text text-anchor="start" x="226.87" y="-240.2" font-family="Arial" font-size="14.00" fill="#666666">[varchar(50)]</text>
<polygon fill="none" stroke="black" points="150.63,-197.2 150.63,-228 415.58,-228 415.58,-197.2 150.63,-197.2"/>
<text text-anchor="start" x="157.63" y="-209.4" font-family="Arial" font-size="14.00">last_name </text>
<text text-anchor="start" x="226.11" y="-209.4" font-family="Arial" font-size="14.00" fill="#666666">[varchar(50)]</text>
<polygon fill="none" stroke="black" points="150.63,-166.4 150.63,-197.2 415.58,-197.2 415.58,-166.4 150.63,-166.4"/>
<text text-anchor="start" x="157.63" y="-178.6" font-family="Arial" font-size="14.00">email </text>
<text text-anchor="start" x="194.97" y="-178.6" font-family="Arial" font-size="14.00" fill="#666666">[varchar(100)]</text>
<polygon fill="none" stroke="black" points="150.63,-135.6 150.63,-166.4 415.58,-166.4 415.58,-135.6 150.63,-135.6"/>
<text text-anchor="start" x="157.63" y="-147.8" font-family="Arial" font-size="14.00">hire_date </text>
<text text-anchor="start" x="219.89" y="-147.8" font-family="Arial" font-size="14.00" fill="#666666">[date]</text>
<polygon fill="none" stroke="black" points="150.63,-104.8 150.63,-135.6 415.58,-135.6 415.58,-104.8 150.63,-104.8"/>
<text text-anchor="start" x="157.63" y="-117" font-family="Arial" font-size="14.00">salary </text>
<text text-anchor="start" x="198.86" y="-117" font-family="Arial" font-size="14.00" fill="#666666">[numeric(10,2)]</text>
<polygon fill="none" stroke="black" points="150.63,-74 150.63,-104.8 415.58,-104.8 415.58,-74 150.63,-74"/>
<text text-anchor="start" x="157.63" y="-86.2" font-family="Arial" font-size="14.00">department_id </text>
<text text-anchor="start" x="251.02" y="-86.2" font-family="Arial" font-size="14.00" fill="#666666">[integer]</text>
<polygon fill="none" stroke="black" points="150.63,-43.2 150.63,-74 415.58,-74 415.58,-43.2 150.63,-43.2"/>
<text text-anchor="start" x="157.63" y="-55.4" font-family="Arial" font-size="14.00">manager_id </text>
<text text-anchor="start" x="235.45" y="-55.4" font-family="Arial" font-size="14.00" fill="#666666">[integer]</text>
</g>
<!-- public.job_history&#45;&gt;public.employees -->
<g id="edge1" class="edge">
<title>public.job_history:employee_id&#45;&gt;public.employees:employee_id</title>
<path fill="none" stroke="black" d="M323.77,-557.55C269.19,-547.94 299.75,-458.58 335.11,-404.4 356.53,-371.59 394.1,-401.16 415.58,-368.4 438.54,-333.39 458.45,-274.2 416.58,-274.2"/>
<polygon fill="black" stroke="black" points="323.81,-557.56 333.41,-562.86 329.13,-557.99 333.45,-558.35 333.45,-558.35 333.45,-558.35 329.13,-557.99 334.15,-553.89 323.81,-557.56"/>
<text text-anchor="start" x="7" y="-568.4" font-family="Arial" font-size="10.00">FOREIGN KEY (employee_id) REFERENCES employees(employee_id)</text>
</g>
<!-- public.departments -->
<g id="node3" class="node">
<title>public.departments</title>
<polygon fill="#efefef" stroke="none" points="520.13,-228 520.13,-263.6 796.08,-263.6 796.08,-228 520.13,-228"/>
<polygon fill="none" stroke="black" points="520.13,-228 520.13,-263.6 796.08,-263.6 796.08,-228 520.13,-228"/>
<text text-anchor="start" x="527.13" y="-241.4" font-family="Arial Bold" font-size="18.00">public.departments</text>
<text text-anchor="start" x="664.59" y="-241.4" font-family="Arial" font-size="14.00">    </text>
<text text-anchor="start" x="695.71" y="-241.4" font-family="Arial" font-size="14.00" fill="#666666">[BASE TABLE]</text>
<polygon fill="none" stroke="black" points="520.13,-197.2 520.13,-228 796.08,-228 796.08,-197.2 520.13,-197.2"/>
<text text-anchor="start" x="527.13" y="-209.4" font-family="Arial" font-size="14.00">department_id </text>
<text text-anchor="start" x="620.52" y="-209.4" font-family="Arial" font-size="14.00" fill="#666666">[integer]</text>
<polygon fill="none" stroke="black" points="520.13,-166.4 520.13,-197.2 796.08,-197.2 796.08,-166.4 520.13,-166.4"/>
<text text-anchor="start" x="527.13" y="-178.6" font-family="Arial" font-size="14.00">department_name </text>
<text text-anchor="start" x="644.65" y="-178.6" font-family="Arial" font-size="14.00" fill="#666666">[varchar(50)]</text>
<polygon fill="none" stroke="black" points="520.13,-135.6 520.13,-166.4 796.08,-166.4 796.08,-135.6 520.13,-135.6"/>
<text text-anchor="start" x="527.13" y="-147.8" font-family="Arial" font-size="14.00">department_code </text>
<text text-anchor="start" x="639.98" y="-147.8" font-family="Arial" font-size="14.00" fill="#666666">[varchar(10)]</text>
<polygon fill="none" stroke="black" points="520.13,-104.8 520.13,-135.6 796.08,-135.6 796.08,-104.8 520.13,-104.8"/>
<text text-anchor="start" x="527.13" y="-117" font-family="Arial" font-size="14.00">location </text>
<text text-anchor="start" x="579.27" y="-117" font-family="Arial" font-size="14.00" fill="#666666">[varchar(50)]</text>
</g>
<!-- public.job_history&#45;&gt;public.departments -->
<g id="edge2" class="edge">
<title>public.job_history:department_id&#45;&gt;public.departments:department_id</title>
<path fill="none" stroke="black" d="M616.33,-526.56C655.82,-517.58 623.13,-452 605.09,-404.4 584.72,-350.62 540.57,-360.56 520.13,-306.8 505.24,-267.67 477.26,-212.6 519.13,-212.6"/>
<polygon fill="black" stroke="black" points="616.38,-526.56 605.97,-523.09 611.07,-527.1 606.76,-527.53 606.76,-527.53 606.76,-527.53 611.07,-527.1 606.88,-532.04 616.38,-526.56"/>
<text text-anchor="start" x="613.09" y="-537.6" font-family="Arial" font-size="10.00">FOREIGN KEY (department_id) REFERENCES departments(department_id)</text>
</g>
</g>
</svg>
