<?xml version="1.0" encoding="UTF-8" standalone="no"?>
<!DOCTYPE svg PUBLIC "-//W3C//DTD SVG 1.1//EN"
 "http://www.w3.org/Graphics/SVG/1.1/DTD/svg11.dtd">
<!-- Generated by graphviz version 12.1.2 (20240928.0832)
 -->
<!-- Title: public.employees Pages: 1 -->
<svg width="1140pt" height="1006pt"
 viewBox="0.00 0.00 1140.29 1006.40" xmlns="http://www.w3.org/2000/svg" xmlns:xlink="http://www.w3.org/1999/xlink">
<g id="graph0" class="graph" transform="scale(1 1) rotate(0) translate(4 1002.4)">
<title>public.employees</title>
<polygon fill="white" stroke="none" points="-4,4 -4,-1002.4 1136.29,-1002.4 1136.29,4 -4,4"/>
<!-- public.employees -->
<g id="node1" class="node">
<title>public.employees</title>
<polygon fill="#efefef" stroke="none" points="450.69,-573.8 450.69,-609.4 715.64,-609.4 715.64,-573.8 450.69,-573.8"/>
<polygon fill="none" stroke="black" points="450.69,-573.8 450.69,-609.4 715.64,-609.4 715.64,-573.8 450.69,-573.8"/>
<text text-anchor="start" x="457.69" y="-587.2" font-family="Arial Bold" font-size="18.00">public.employees</text>
<text text-anchor="start" x="584.15" y="-587.2" font-family="Arial" font-size="14.00">    </text>
<text text-anchor="start" x="615.27" y="-587.2" font-family="Arial" font-size="14.00" fill="#666666">[BASE TABLE]</text>
<polygon fill="none" stroke="black" points="450.69,-543 450.69,-573.8 715.64,-573.8 715.64,-543 450.69,-543"/>
<text text-anchor="start" x="457.69" y="-555.2" font-family="Arial" font-size="14.00">employee_id </text>
<text text-anchor="start" x="540.96" y="-555.2" font-family="Arial" font-size="14.00" fill="#666666">[integer]</text>
<polygon fill="none" stroke="black" points="450.69,-512.2 450.69,-543 715.64,-543 715.64,-512.2 450.69,-512.2"/>
<text text-anchor="start" x="457.69" y="-524.4" font-family="Arial" font-size="14.00">first_name </text>
<text text-anchor="start" x="526.94" y="-524.4" font-family="Arial" font-size="14.00" fill="#666666">[varchar(50)]</text>
<polygon fill="none" stroke="black" points="450.69,-481.4 450.69,-512.2 715.64,-512.2 715.64,-481.4 450.69,-481.4"/>
<text text-anchor="start" x="457.69" y="-493.6" font-family="Arial" font-size="14.00">last_name </text>
<text text-anchor="start" x="526.17" y="-493.6" font-family="Arial" font-size="14.00" fill="#666666">[varchar(50)]</text>
<polygon fill="none" stroke="black" points="450.69,-450.6 450.69,-481.4 715.64,-481.4 715.64,-450.6 450.69,-450.6"/>
<text text-anchor="start" x="457.69" y="-462.8" font-family="Arial" font-size="14.00">email </text>
<text text-anchor="start" x="495.03" y="-462.8" font-family="Arial" font-size="14.00" fill="#666666">[varchar(100)]</text>
<polygon fill="none" stroke="black" points="450.69,-419.8 450.69,-450.6 715.64,-450.6 715.64,-419.8 450.69,-419.8"/>
<text text-anchor="start" x="457.69" y="-432" font-family="Arial" font-size="14.00">hire_date </text>
<text text-anchor="start" x="519.96" y="-432" font-family="Arial" font-size="14.00" fill="#666666">[date]</text>
<polygon fill="none" stroke="black" points="450.69,-389 450.69,-419.8 715.64,-419.8 715.64,-389 450.69,-389"/>
<text text-anchor="start" x="457.69" y="-401.2" font-family="Arial" font-size="14.00">salary </text>
<text text-anchor="start" x="498.92" y="-401.2" font-family="Arial" font-size="14.00" fill="#666666">[numeric(10,2)]</text>
<polygon fill="none" stroke="black" points="450.69,-358.2 450.69,-389 715.64,-389 715.64,-358.2 450.69,-358.2"/>
<text text-anchor="start" x="457.69" y="-370.4" font-family="Arial" font-size="14.00">department_id </text>
<text text-anchor="start" x="551.08" y="-370.4" font-family="Arial" font-size="14.00" fill="#666666">[integer]</text>
<polygon fill="none" stroke="black" points="450.69,-327.4 450.69,-358.2 715.64,-358.2 715.64,-327.4 450.69,-327.4"/>
<text text-anchor="start" x="457.69" y="-339.6" font-family="Arial" font-size="14.00">manager_id </text>
<text text-anchor="start" x="535.51" y="-339.6" font-family="Arial" font-size="14.00" fill="#666666">[integer]</text>
<polygon fill="none" stroke="black" stroke-width="3" points="449.19,-325.9 449.19,-610.9 717.14,-610.9 717.14,-325.9 449.19,-325.9"/>
</g>
<!-- public.employees&#45;&gt;public.employees -->
<g id="edge1" class="edge">
<title>public.employees:manager_id&#45;&gt;public.employees:employee_id</title>
<path fill="none" stroke="black" d="M584.75,-368.05C592.13,-507.13 591.6,-828.5 583.16,-828.5 574.54,-828.5 574.18,-690.77 582.08,-573.67"/>
<polygon fill="black" stroke="black" points="584.76,-368.27 588.69,-358.03 584.46,-362.95 584.22,-358.62 584.22,-358.62 584.22,-358.62 584.46,-362.95 579.7,-358.54 584.76,-368.27"/>
<text text-anchor="start" x="591.18" y="-367.95" font-family="Arial" font-size="10.00">FOREIGN KEY (manager_id) REFERENCES employees(employee_id)</text>
</g>
<!-- public.departments -->
<g id="node5" class="node">
<title>public.departments</title>
<polygon fill="#efefef" stroke="none" points="445.19,-166.4 445.19,-202 721.14,-202 721.14,-166.4 445.19,-166.4"/>
<polygon fill="none" stroke="black" points="445.19,-166.4 445.19,-202 721.14,-202 721.14,-166.4 445.19,-166.4"/>
<text text-anchor="start" x="452.19" y="-179.8" font-family="Arial Bold" font-size="18.00">public.departments</text>
<text text-anchor="start" x="589.65" y="-179.8" font-family="Arial" font-size="14.00">    </text>
<text text-anchor="start" x="620.77" y="-179.8" font-family="Arial" font-size="14.00" fill="#666666">[BASE TABLE]</text>
<polygon fill="none" stroke="black" points="445.19,-135.6 445.19,-166.4 721.14,-166.4 721.14,-135.6 445.19,-135.6"/>
<text text-anchor="start" x="452.19" y="-147.8" font-family="Arial" font-size="14.00">department_id </text>
<text text-anchor="start" x="545.58" y="-147.8" font-family="Arial" font-size="14.00" fill="#666666">[integer]</text>
<polygon fill="none" stroke="black" points="445.19,-104.8 445.19,-135.6 721.14,-135.6 721.14,-104.8 445.19,-104.8"/>
<text text-anchor="start" x="452.19" y="-117" font-family="Arial" font-size="14.00">department_name </text>
<text text-anchor="start" x="569.71" y="-117" font-family="Arial" font-size="14.00" fill="#666666">[varchar(50)]</text>
<polygon fill="none" stroke="black" points="445.19,-74 445.19,-104.8 721.14,-104.8 721.14,-74 445.19,-74"/>
<text text-anchor="start" x="452.19" y="-86.2" font-family="Arial" font-size="14.00">department_code </text>
<text text-anchor="start" x="565.04" y="-86.2" font-family="Arial" font-size="14.00" fill="#666666">[varchar(10)]</text>
<polygon fill="none" stroke="black" points="445.19,-43.2 445.19,-74 721.14,-74 721.14,-43.2 445.19,-43.2"/>
<text text-anchor="start" x="452.19" y="-55.4" font-family="Arial" font-size="14.00">location </text>
<text text-anchor="start" x="504.33" y="-55.4" font-family="Arial" font-size="14.00" fill="#666666">[varchar(50)]</text>
</g>
<!-- public.employees&#45;&gt;public.departments -->
<g id="edge5" class="edge">
<title>public.employees:department_id&#45;&gt;public.departments:department_id</title>
<path fill="none" stroke="black" d="M727,-372.75C815.87,-357.8 817.53,-151 722.14,-151"/>
<polygon fill="black" stroke="black" points="726.94,-372.75 716.61,-369.09 721.63,-373.19 717.31,-373.55 717.31,-373.55 717.31,-373.55 721.63,-373.19 717.34,-378.06 726.94,-372.75"/>
<text text-anchor="start" x="723.64" y="-383.6" font-family="Arial" font-size="10.00">FOREIGN KEY (department_id) REFERENCES departments(department_id)</text>
</g>
<!-- public.employee_projects -->
<g id="node2" class="node">
<title>public.employee_projects</title>
<polygon fill="#efefef" stroke="none" points="43.2,-858 43.2,-893.6 367.13,-893.6 367.13,-858 43.2,-858"/>
<polygon fill="none" stroke="black" points="43.2,-858 43.2,-893.6 367.13,-893.6 367.13,-858 43.2,-858"/>
<text text-anchor="start" x="50.2" y="-871.4" font-family="Arial Bold" font-size="18.00">public.employee_projects</text>
<text text-anchor="start" x="235.64" y="-871.4" font-family="Arial" font-size="14.00">    </text>
<text text-anchor="start" x="266.76" y="-871.4" font-family="Arial" font-size="14.00" fill="#666666">[BASE TABLE]</text>
<polygon fill="none" stroke="black" points="43.2,-827.2 43.2,-858 367.13,-858 367.13,-827.2 43.2,-827.2"/>
<text text-anchor="start" x="50.2" y="-839.4" font-family="Arial" font-size="14.00">employee_id </text>
<text text-anchor="start" x="133.48" y="-839.4" font-family="Arial" font-size="14.00" fill="#666666">[integer]</text>
<polygon fill="none" stroke="black" points="43.2,-796.4 43.2,-827.2 367.13,-827.2 367.13,-796.4 43.2,-796.4"/>
<text text-anchor="start" x="50.2" y="-808.6" font-family="Arial" font-size="14.00">project_id </text>
<text text-anchor="start" x="114.79" y="-808.6" font-family="Arial" font-size="14.00" fill="#666666">[integer]</text>
</g>
<!-- public.employee_projects&#45;&gt;public.employees -->
<g id="edge2" class="edge">
<title>public.employee_projects:employee_id&#45;&gt;public.employees:employee_id</title>
<path fill="none" stroke="black" d="M378.22,-841.97C489.86,-827.27 321.87,-558.4 449.69,-558.4"/>
<polygon fill="black" stroke="black" points="378.44,-841.96 368.18,-838.09 373.12,-842.29 368.8,-842.56 368.8,-842.56 368.8,-842.56 373.12,-842.29 368.74,-847.07 378.44,-841.96"/>
<text text-anchor="start" x="375.13" y="-852.6" font-family="Arial" font-size="10.00">FOREIGN KEY (employee_id) REFERENCES employees(employee_id)</text>
</g>
<!-- public.tasks -->
<g id="node3" class="node">
<title>public.tasks</title>
<polygon fill="#efefef" stroke="none" points="471.17,-919.6 471.17,-955.2 695.16,-955.2 695.16,-919.6 471.17,-919.6"/>
<polygon fill="none" stroke="black" points="471.17,-919.6 471.17,-955.2 695.16,-955.2 695.16,-919.6 471.17,-919.6"/>
<text text-anchor="start" x="478.17" y="-933" font-family="Arial Bold" font-size="18.00">public.tasks</text>
<text text-anchor="start" x="563.67" y="-933" font-family="Arial" font-size="14.00">    </text>
<text text-anchor="start" x="594.78" y="-933" font-family="Arial" font-size="14.00" fill="#666666">[BASE TABLE]</text>
<polygon fill="none" stroke="black" points="471.17,-888.8 471.17,-919.6 695.16,-919.6 695.16,-888.8 471.17,-888.8"/>
<text text-anchor="start" x="478.17" y="-901" font-family="Arial" font-size="14.00">task_id </text>
<text text-anchor="start" x="526.42" y="-901" font-family="Arial" font-size="14.00" fill="#666666">[integer]</text>
<polygon fill="none" stroke="black" points="471.17,-858 471.17,-888.8 695.16,-888.8 695.16,-858 471.17,-858"/>
<text text-anchor="start" x="478.17" y="-870.2" font-family="Arial" font-size="14.00">task_name </text>
<text text-anchor="start" x="550.55" y="-870.2" font-family="Arial" font-size="14.00" fill="#666666">[varchar(100)]</text>
<polygon fill="none" stroke="black" points="471.17,-827.2 471.17,-858 695.16,-858 695.16,-827.2 471.17,-827.2"/>
<text text-anchor="start" x="478.17" y="-839.4" font-family="Arial" font-size="14.00">due_date </text>
<text text-anchor="start" x="540.46" y="-839.4" font-family="Arial" font-size="14.00" fill="#666666">[date]</text>
<polygon fill="none" stroke="black" points="471.17,-796.4 471.17,-827.2 695.16,-827.2 695.16,-796.4 471.17,-796.4"/>
<text text-anchor="start" x="478.17" y="-808.6" font-family="Arial" font-size="14.00">priority </text>
<text text-anchor="start" x="524.07" y="-808.6" font-family="Arial" font-size="14.00" fill="#666666">[varchar(10)]</text>
<polygon fill="none" stroke="black" points="471.17,-765.6 471.17,-796.4 695.16,-796.4 695.16,-765.6 471.17,-765.6"/>
<text text-anchor="start" x="478.17" y="-777.8" font-family="Arial" font-size="14.00">project_id </text>
<text text-anchor="start" x="542.77" y="-777.8" font-family="Arial" font-size="14.00" fill="#666666">[integer]</text>
<polygon fill="none" stroke="black" points="471.17,-734.8 471.17,-765.6 695.16,-765.6 695.16,-734.8 471.17,-734.8"/>
<text text-anchor="start" x="478.17" y="-747" font-family="Arial" font-size="14.00">assigned_to </text>
<text text-anchor="start" x="557.57" y="-747" font-family="Arial" font-size="14.00" fill="#666666">[integer]</text>
</g>
<!-- public.tasks&#45;&gt;public.employees -->
<g id="edge3" class="edge">
<title>public.tasks:assigned_to&#45;&gt;public.employees:employee_id</title>
<path fill="none" stroke="black" d="M584.02,-723.6C593.72,-670.5 683.31,-711.56 715.64,-655.6 737.26,-618.19 759.84,-558.4 716.64,-558.4"/>
<polygon fill="black" stroke="black" points="584.03,-723.5 578.71,-733.09 583.58,-728.82 583.22,-733.13 583.22,-733.13 583.22,-733.13 583.58,-728.82 587.68,-733.84 584.03,-723.5"/>
<text text-anchor="start" x="258.83" y="-717.8" font-family="Arial" font-size="10.00">FOREIGN KEY (assigned_to) REFERENCES employees(employee_id)</text>
</g>
<!-- public.job_history -->
<g id="node4" class="node">
<title>public.job_history</title>
<polygon fill="#efefef" stroke="none" points="799.17,-888.8 799.17,-924.4 1069.16,-924.4 1069.16,-888.8 799.17,-888.8"/>
<polygon fill="none" stroke="black" points="799.17,-888.8 799.17,-924.4 1069.16,-924.4 1069.16,-888.8 799.17,-888.8"/>
<text text-anchor="start" x="806.17" y="-902.2" font-family="Arial Bold" font-size="18.00">public.job_history</text>
<text text-anchor="start" x="937.67" y="-902.2" font-family="Arial" font-size="14.00">    </text>
<text text-anchor="start" x="968.78" y="-902.2" font-family="Arial" font-size="14.00" fill="#666666">[BASE TABLE]</text>
<polygon fill="none" stroke="black" points="799.17,-858 799.17,-888.8 1069.16,-888.8 1069.16,-858 799.17,-858"/>
<text text-anchor="start" x="806.17" y="-870.2" font-family="Arial" font-size="14.00">employee_id </text>
<text text-anchor="start" x="889.45" y="-870.2" font-family="Arial" font-size="14.00" fill="#666666">[integer]</text>
<polygon fill="none" stroke="black" points="799.17,-827.2 799.17,-858 1069.16,-858 1069.16,-827.2 799.17,-827.2"/>
<text text-anchor="start" x="806.17" y="-839.4" font-family="Arial" font-size="14.00">department_id </text>
<text text-anchor="start" x="899.57" y="-839.4" font-family="Arial" font-size="14.00" fill="#666666">[integer]</text>
<polygon fill="none" stroke="black" points="799.17,-796.4 799.17,-827.2 1069.16,-827.2 1069.16,-796.4 799.17,-796.4"/>
<text text-anchor="start" x="806.17" y="-808.6" font-family="Arial" font-size="14.00">start_date </text>
<text text-anchor="start" x="872.33" y="-808.6" font-family="Arial" font-size="14.00" fill="#666666">[date]</text>
<polygon fill="none" stroke="black" points="799.17,-765.6 799.17,-796.4 1069.16,-796.4 1069.16,-765.6 799.17,-765.6"/>
<text text-anchor="start" x="806.17" y="-777.8" font-family="Arial" font-size="14.00">end_date </text>
<text text-anchor="start" x="868.46" y="-777.8" font-family="Arial" font-size="14.00" fill="#666666">[date]</text>
</g>
<!-- public.job_history&#45;&gt;public.employees -->
<g id="edge4" class="edge">
<title>public.job_history:employee_id&#45;&gt;public.employees:employee_id</title>
<path fill="none" stroke="black" d="M788.17,-871.05C731.92,-842.22 785.28,-558.4 716.64,-558.4"/>
<polygon fill="black" stroke="black" points="788.11,-871.03 796.82,-877.7 793.31,-872.25 797.52,-873.25 797.52,-873.25 797.52,-873.25 793.31,-872.25 798.88,-868.94 788.11,-871.03"/>
<text text-anchor="start" x="805.17" y="-883.4" font-family="Arial" font-size="10.00">FOREIGN KEY (employee_id) REFERENCES employees(employee_id)</text>
</g>
</g>
</svg>
