<?xml version="1.0" encoding="UTF-8" standalone="no"?>
<!DOCTYPE svg PUBLIC "-//W3C//DTD SVG 1.1//EN"
 "http://www.w3.org/Graphics/SVG/1.1/DTD/svg11.dtd">
<!-- Generated by graphviz version 12.1.2 (20240928.0832)
 -->
<!-- Title: testdb Pages: 1 -->
<svg width="1251pt" height="1000pt"
 viewBox="0.00 0.00 1250.88 1000.40" xmlns="http://www.w3.org/2000/svg" xmlns:xlink="http://www.w3.org/1999/xlink">
<g id="graph0" class="graph" transform="scale(1 1) rotate(0) translate(4 996.4)">
<title>testdb</title>
<polygon fill="white" stroke="none" points="-4,4 -4,-996.4 1246.88,-996.4 1246.88,4 -4,4"/>
<!-- public.departments -->
<g id="node1" class="node">
<title>public.departments</title>
<polygon fill="#efefef" stroke="none" points="274.83,-166.4 274.83,-202 550.78,-202 550.78,-166.4 274.83,-166.4"/>
<polygon fill="none" stroke="black" points="274.83,-166.4 274.83,-202 550.78,-202 550.78,-166.4 274.83,-166.4"/>
<text text-anchor="start" x="281.83" y="-179.8" font-family="Arial Bold" font-size="18.00">public.departments</text>
<text text-anchor="start" x="419.29" y="-179.8" font-family="Arial" font-size="14.00">    </text>
<text text-anchor="start" x="450.4" y="-179.8" font-family="Arial" font-size="14.00" fill="#666666">[BASE TABLE]</text>
<polygon fill="none" stroke="black" points="274.83,-135.6 274.83,-166.4 550.78,-166.4 550.78,-135.6 274.83,-135.6"/>
<text text-anchor="start" x="281.83" y="-147.8" font-family="Arial" font-size="14.00">department_id </text>
<text text-anchor="start" x="375.22" y="-147.8" font-family="Arial" font-size="14.00" fill="#666666">[integer]</text>
<polygon fill="none" stroke="black" points="274.83,-104.8 274.83,-135.6 550.78,-135.6 550.78,-104.8 274.83,-104.8"/>
<text text-anchor="start" x="281.83" y="-117" font-family="Arial" font-size="14.00">department_name </text>
<text text-anchor="start" x="399.34" y="-117" font-family="Arial" font-size="14.00" fill="#666666">[varchar(50)]</text>
<polygon fill="none" stroke="black" points="274.83,-74 274.83,-104.8 550.78,-104.8 550.78,-74 274.83,-74"/>
<text text-anchor="start" x="281.83" y="-86.2" font-family="Arial" font-size="14.00">department_code </text>
<text text-anchor="start" x="394.68" y="-86.2" font-family="Arial" font-size="14.00" fill="#666666">[varchar(10)]</text>
<polygon fill="none" stroke="black" points="274.83,-43.2 274.83,-74 550.78,-74 550.78,-43.2 274.83,-43.2"/>
<text text-anchor="start" x="281.83" y="-55.4" font-family="Arial" font-size="14.00">location </text>
<text text-anchor="start" x="333.97" y="-55.4" font-family="Arial" font-size="14.00" fill="#666666">[varchar(50)]</text>
</g>
<!-- public.clients -->
<g id="node2" class="node">
<title>public.clients</title>
<polygon fill="#efefef" stroke="none" points="775.32,-151 775.32,-186.6 1010.28,-186.6 1010.28,-151 775.32,-151"/>
<polygon fill="none" stroke="black" points="775.32,-151 775.32,-186.6 1010.28,-186.6 1010.28,-151 775.32,-151"/>
<text text-anchor="start" x="782.32" y="-164.4" font-family="Arial Bold" font-size="18.00">public.clients</text>
<text text-anchor="start" x="878.79" y="-164.4" font-family="Arial" font-size="14.00">    </text>
<text text-anchor="start" x="909.91" y="-164.4" font-family="Arial" font-size="14.00" fill="#666666">[BASE TABLE]</text>
<polygon fill="none" stroke="black" points="775.32,-120.2 775.32,-151 1010.28,-151 1010.28,-120.2 775.32,-120.2"/>
<text text-anchor="start" x="782.32" y="-132.4" font-family="Arial" font-size="14.00">client_id </text>
<text text-anchor="start" x="837.57" y="-132.4" font-family="Arial" font-size="14.00" fill="#666666">[integer]</text>
<polygon fill="none" stroke="black" points="775.32,-89.4 775.32,-120.2 1010.28,-120.2 1010.28,-89.4 775.32,-89.4"/>
<text text-anchor="start" x="782.32" y="-101.6" font-family="Arial" font-size="14.00">client_name </text>
<text text-anchor="start" x="861.7" y="-101.6" font-family="Arial" font-size="14.00" fill="#666666">[varchar(100)]</text>
<polygon fill="none" stroke="black" points="775.32,-58.6 775.32,-89.4 1010.28,-89.4 1010.28,-58.6 775.32,-58.6"/>
<text text-anchor="start" x="782.32" y="-70.8" font-family="Arial" font-size="14.00">contact_email </text>
<text text-anchor="start" x="872.59" y="-70.8" font-family="Arial" font-size="14.00" fill="#666666">[varchar(100)]</text>
</g>
<!-- public.employees -->
<g id="node3" class="node">
<title>public.employees</title>
<polygon fill="#efefef" stroke="none" points="401.32,-570.8 401.32,-606.4 666.28,-606.4 666.28,-570.8 401.32,-570.8"/>
<polygon fill="none" stroke="black" points="401.32,-570.8 401.32,-606.4 666.28,-606.4 666.28,-570.8 401.32,-570.8"/>
<text text-anchor="start" x="408.32" y="-584.2" font-family="Arial Bold" font-size="18.00">public.employees</text>
<text text-anchor="start" x="534.79" y="-584.2" font-family="Arial" font-size="14.00">    </text>
<text text-anchor="start" x="565.91" y="-584.2" font-family="Arial" font-size="14.00" fill="#666666">[BASE TABLE]</text>
<polygon fill="none" stroke="black" points="401.32,-540 401.32,-570.8 666.28,-570.8 666.28,-540 401.32,-540"/>
<text text-anchor="start" x="408.32" y="-552.2" font-family="Arial" font-size="14.00">employee_id </text>
<text text-anchor="start" x="491.6" y="-552.2" font-family="Arial" font-size="14.00" fill="#666666">[integer]</text>
<polygon fill="none" stroke="black" points="401.32,-509.2 401.32,-540 666.28,-540 666.28,-509.2 401.32,-509.2"/>
<text text-anchor="start" x="408.32" y="-521.4" font-family="Arial" font-size="14.00">first_name </text>
<text text-anchor="start" x="477.57" y="-521.4" font-family="Arial" font-size="14.00" fill="#666666">[varchar(50)]</text>
<polygon fill="none" stroke="black" points="401.32,-478.4 401.32,-509.2 666.28,-509.2 666.28,-478.4 401.32,-478.4"/>
<text text-anchor="start" x="408.32" y="-490.6" font-family="Arial" font-size="14.00">last_name </text>
<text text-anchor="start" x="476.81" y="-490.6" font-family="Arial" font-size="14.00" fill="#666666">[varchar(50)]</text>
<polygon fill="none" stroke="black" points="401.32,-447.6 401.32,-478.4 666.28,-478.4 666.28,-447.6 401.32,-447.6"/>
<text text-anchor="start" x="408.32" y="-459.8" font-family="Arial" font-size="14.00">email </text>
<text text-anchor="start" x="445.67" y="-459.8" font-family="Arial" font-size="14.00" fill="#666666">[varchar(100)]</text>
<polygon fill="none" stroke="black" points="401.32,-416.8 401.32,-447.6 666.28,-447.6 666.28,-416.8 401.32,-416.8"/>
<text text-anchor="start" x="408.32" y="-429" font-family="Arial" font-size="14.00">hire_date </text>
<text text-anchor="start" x="470.59" y="-429" font-family="Arial" font-size="14.00" fill="#666666">[date]</text>
<polygon fill="none" stroke="black" points="401.32,-386 401.32,-416.8 666.28,-416.8 666.28,-386 401.32,-386"/>
<text text-anchor="start" x="408.32" y="-398.2" font-family="Arial" font-size="14.00">salary </text>
<text text-anchor="start" x="449.56" y="-398.2" font-family="Arial" font-size="14.00" fill="#666666">[numeric(10,2)]</text>
<polygon fill="none" stroke="black" points="401.32,-355.2 401.32,-386 666.28,-386 666.28,-355.2 401.32,-355.2"/>
<text text-anchor="start" x="408.32" y="-367.4" font-family="Arial" font-size="14.00">department_id </text>
<text text-anchor="start" x="501.72" y="-367.4" font-family="Arial" font-size="14.00" fill="#666666">[integer]</text>
<polygon fill="none" stroke="black" points="401.32,-324.4 401.32,-355.2 666.28,-355.2 666.28,-324.4 401.32,-324.4"/>
<text text-anchor="start" x="408.32" y="-336.6" font-family="Arial" font-size="14.00">manager_id </text>
<text text-anchor="start" x="486.15" y="-336.6" font-family="Arial" font-size="14.00" fill="#666666">[integer]</text>
</g>
<!-- public.employees&#45;&gt;public.departments -->
<g id="edge1" class="edge">
<title>public.employees:department_id&#45;&gt;public.departments:department_id</title>
<path fill="none" stroke="black" d="M390.23,-369.01C363.79,-359.47 378.98,-309.24 401.32,-281.2 443.9,-227.77 508.21,-298.65 550.78,-245.2 576.86,-212.45 593.64,-151 551.78,-151"/>
<polygon fill="black" stroke="black" points="390.11,-368.99 399.29,-374.99 395.38,-369.82 399.66,-370.5 399.66,-370.5 399.66,-370.5 395.38,-369.82 400.69,-366.1 390.11,-368.99"/>
<text text-anchor="start" x="51.53" y="-380.6" font-family="Arial" font-size="10.00">FOREIGN KEY (department_id) REFERENCES departments(department_id)</text>
</g>
<!-- public.employees&#45;&gt;public.employees -->
<g id="edge2" class="edge">
<title>public.employees:manager_id&#45;&gt;public.employees:employee_id</title>
<path fill="none" stroke="black" d="M535.43,-365.58C542.76,-503.55 542.22,-821 533.8,-821 525.18,-821 524.82,-686.03 532.71,-570.47"/>
<polygon fill="black" stroke="black" points="535.42,-365.49 539.35,-355.25 535.12,-360.17 534.88,-355.84 534.88,-355.84 534.88,-355.84 535.12,-360.17 530.36,-355.76 535.42,-365.49"/>
<text text-anchor="start" x="211.62" y="-339.17" font-family="Arial" font-size="10.00">FOREIGN KEY (manager_id) REFERENCES employees(employee_id)</text>
</g>
<!-- public.projects -->
<g id="node4" class="node">
<title>public.projects</title>
<polygon fill="#efefef" stroke="none" points="770.32,-540 770.32,-575.6 1015.28,-575.6 1015.28,-540 770.32,-540"/>
<polygon fill="none" stroke="black" points="770.32,-540 770.32,-575.6 1015.28,-575.6 1015.28,-540 770.32,-540"/>
<text text-anchor="start" x="777.32" y="-553.4" font-family="Arial Bold" font-size="18.00">public.projects</text>
<text text-anchor="start" x="883.79" y="-553.4" font-family="Arial" font-size="14.00">    </text>
<text text-anchor="start" x="914.91" y="-553.4" font-family="Arial" font-size="14.00" fill="#666666">[BASE TABLE]</text>
<polygon fill="none" stroke="black" points="770.32,-509.2 770.32,-540 1015.28,-540 1015.28,-509.2 770.32,-509.2"/>
<text text-anchor="start" x="777.32" y="-521.4" font-family="Arial" font-size="14.00">project_id </text>
<text text-anchor="start" x="841.91" y="-521.4" font-family="Arial" font-size="14.00" fill="#666666">[integer]</text>
<polygon fill="none" stroke="black" points="770.32,-478.4 770.32,-509.2 1015.28,-509.2 1015.28,-478.4 770.32,-478.4"/>
<text text-anchor="start" x="777.32" y="-490.6" font-family="Arial" font-size="14.00">project_name </text>
<text text-anchor="start" x="866.04" y="-490.6" font-family="Arial" font-size="14.00" fill="#666666">[varchar(100)]</text>
<polygon fill="none" stroke="black" points="770.32,-447.6 770.32,-478.4 1015.28,-478.4 1015.28,-447.6 770.32,-447.6"/>
<text text-anchor="start" x="777.32" y="-459.8" font-family="Arial" font-size="14.00">status </text>
<text text-anchor="start" x="818.56" y="-459.8" font-family="Arial" font-size="14.00" fill="#666666">[varchar(20)]</text>
<polygon fill="none" stroke="black" points="770.32,-416.8 770.32,-447.6 1015.28,-447.6 1015.28,-416.8 770.32,-416.8"/>
<text text-anchor="start" x="777.32" y="-429" font-family="Arial" font-size="14.00">start_date </text>
<text text-anchor="start" x="843.47" y="-429" font-family="Arial" font-size="14.00" fill="#666666">[date]</text>
<polygon fill="none" stroke="black" points="770.32,-386 770.32,-416.8 1015.28,-416.8 1015.28,-386 770.32,-386"/>
<text text-anchor="start" x="777.32" y="-398.2" font-family="Arial" font-size="14.00">end_date </text>
<text text-anchor="start" x="839.6" y="-398.2" font-family="Arial" font-size="14.00" fill="#666666">[date]</text>
<polygon fill="none" stroke="black" points="770.32,-355.2 770.32,-386 1015.28,-386 1015.28,-355.2 770.32,-355.2"/>
<text text-anchor="start" x="777.32" y="-367.4" font-family="Arial" font-size="14.00">client_id </text>
<text text-anchor="start" x="832.58" y="-367.4" font-family="Arial" font-size="14.00" fill="#666666">[integer]</text>
</g>
<!-- public.projects&#45;&gt;public.clients -->
<g id="edge3" class="edge">
<title>public.projects:client_id&#45;&gt;public.clients:client_id</title>
<path fill="none" stroke="black" d="M893.37,-344.13C901.01,-280.03 983.15,-297.01 1010.28,-229.8 1025.96,-190.98 1053.15,-135.6 1011.28,-135.6"/>
<polygon fill="black" stroke="black" points="893.39,-343.88 888.33,-353.61 893.08,-349.21 892.84,-353.53 892.84,-353.53 892.84,-353.53 893.08,-349.21 897.31,-354.12 893.39,-343.88"/>
<text text-anchor="start" x="899.8" y="-364.2" font-family="Arial" font-size="10.00">FOREIGN KEY (client_id) REFERENCES clients(client_id)</text>
</g>
<!-- public.employee_projects -->
<g id="node5" class="node">
<title>public.employee_projects</title>
<polygon fill="#efefef" stroke="none" points="786.84,-852 786.84,-887.6 1110.77,-887.6 1110.77,-852 786.84,-852"/>
<polygon fill="none" stroke="black" points="786.84,-852 786.84,-887.6 1110.77,-887.6 1110.77,-852 786.84,-852"/>
<text text-anchor="start" x="793.84" y="-865.4" font-family="Arial Bold" font-size="18.00">public.employee_projects</text>
<text text-anchor="start" x="979.28" y="-865.4" font-family="Arial" font-size="14.00">    </text>
<text text-anchor="start" x="1010.39" y="-865.4" font-family="Arial" font-size="14.00" fill="#666666">[BASE TABLE]</text>
<polygon fill="none" stroke="black" points="786.84,-821.2 786.84,-852 1110.77,-852 1110.77,-821.2 786.84,-821.2"/>
<text text-anchor="start" x="793.84" y="-833.4" font-family="Arial" font-size="14.00">employee_id </text>
<text text-anchor="start" x="877.11" y="-833.4" font-family="Arial" font-size="14.00" fill="#666666">[integer]</text>
<polygon fill="none" stroke="black" points="786.84,-790.4 786.84,-821.2 1110.77,-821.2 1110.77,-790.4 786.84,-790.4"/>
<text text-anchor="start" x="793.84" y="-802.6" font-family="Arial" font-size="14.00">project_id </text>
<text text-anchor="start" x="858.43" y="-802.6" font-family="Arial" font-size="14.00" fill="#666666">[integer]</text>
</g>
<!-- public.employee_projects&#45;&gt;public.employees -->
<g id="edge4" class="edge">
<title>public.employee_projects:employee_id&#45;&gt;public.employees:employee_id</title>
<path fill="none" stroke="black" d="M775.59,-835.9C719.8,-827.61 761.07,-747.35 734.8,-685.6 733.21,-681.85 671.35,-555.4 667.28,-555.4"/>
<polygon fill="black" stroke="black" points="775.53,-835.9 785.2,-841.07 780.85,-836.26 785.17,-836.55 785.17,-836.55 785.17,-836.55 780.85,-836.26 785.81,-832.09 775.53,-835.9"/>
<text text-anchor="start" x="542.25" y="-820.6" font-family="Arial" font-size="10.00">FOREIGN KEY (employee_id) REFERENCES employees(employee_id)</text>
</g>
<!-- public.employee_projects&#45;&gt;public.projects -->
<g id="edge5" class="edge">
<title>public.employee_projects:project_id&#45;&gt;public.projects:project_id</title>
<path fill="none" stroke="black" d="M949.24,-779.03C959.25,-659.95 1134.29,-524.6 1016.28,-524.6"/>
<polygon fill="black" stroke="black" points="949.24,-779.07 944.32,-788.87 949.01,-784.4 948.83,-788.73 948.83,-788.73 948.83,-788.73 949.01,-784.4 953.31,-789.26 949.24,-779.07"/>
<text text-anchor="start" x="955.8" y="-799.4" font-family="Arial" font-size="10.00">FOREIGN KEY (project_id) REFERENCES projects(project_id)</text>
</g>
<!-- public.tasks -->
<g id="node6" class="node">
<title>public.tasks</title>
<polygon fill="#efefef" stroke="none" points="458.81,-913.6 458.81,-949.2 682.79,-949.2 682.79,-913.6 458.81,-913.6"/>
<polygon fill="none" stroke="black" points="458.81,-913.6 458.81,-949.2 682.79,-949.2 682.79,-913.6 458.81,-913.6"/>
<text text-anchor="start" x="465.81" y="-927" font-family="Arial Bold" font-size="18.00">public.tasks</text>
<text text-anchor="start" x="551.3" y="-927" font-family="Arial" font-size="14.00">    </text>
<text text-anchor="start" x="582.42" y="-927" font-family="Arial" font-size="14.00" fill="#666666">[BASE TABLE]</text>
<polygon fill="none" stroke="black" points="458.81,-882.8 458.81,-913.6 682.79,-913.6 682.79,-882.8 458.81,-882.8"/>
<text text-anchor="start" x="465.81" y="-895" font-family="Arial" font-size="14.00">task_id </text>
<text text-anchor="start" x="514.06" y="-895" font-family="Arial" font-size="14.00" fill="#666666">[integer]</text>
<polygon fill="none" stroke="black" points="458.81,-852 458.81,-882.8 682.79,-882.8 682.79,-852 458.81,-852"/>
<text text-anchor="start" x="465.81" y="-864.2" font-family="Arial" font-size="14.00">task_name </text>
<text text-anchor="start" x="538.18" y="-864.2" font-family="Arial" font-size="14.00" fill="#666666">[varchar(100)]</text>
<polygon fill="none" stroke="black" points="458.81,-821.2 458.81,-852 682.79,-852 682.79,-821.2 458.81,-821.2"/>
<text text-anchor="start" x="465.81" y="-833.4" font-family="Arial" font-size="14.00">due_date </text>
<text text-anchor="start" x="528.09" y="-833.4" font-family="Arial" font-size="14.00" fill="#666666">[date]</text>
<polygon fill="none" stroke="black" points="458.81,-790.4 458.81,-821.2 682.79,-821.2 682.79,-790.4 458.81,-790.4"/>
<text text-anchor="start" x="465.81" y="-802.6" font-family="Arial" font-size="14.00">priority </text>
<text text-anchor="start" x="511.71" y="-802.6" font-family="Arial" font-size="14.00" fill="#666666">[varchar(10)]</text>
<polygon fill="none" stroke="black" points="458.81,-759.6 458.81,-790.4 682.79,-790.4 682.79,-759.6 458.81,-759.6"/>
<text text-anchor="start" x="465.81" y="-771.8" font-family="Arial" font-size="14.00">project_id </text>
<text text-anchor="start" x="530.4" y="-771.8" font-family="Arial" font-size="14.00" fill="#666666">[integer]</text>
<polygon fill="none" stroke="black" points="458.81,-728.8 458.81,-759.6 682.79,-759.6 682.79,-728.8 458.81,-728.8"/>
<text text-anchor="start" x="465.81" y="-741" font-family="Arial" font-size="14.00">assigned_to </text>
<text text-anchor="start" x="545.2" y="-741" font-family="Arial" font-size="14.00" fill="#666666">[integer]</text>
</g>
<!-- public.tasks&#45;&gt;public.employees -->
<g id="edge6" class="edge">
<title>public.tasks:assigned_to&#45;&gt;public.employees:employee_id</title>
<path fill="none" stroke="black" d="M571.77,-717.64C580.38,-676.16 644.16,-695.67 666.28,-649.6 684.4,-611.86 709.15,-555.4 667.28,-555.4"/>
<polygon fill="black" stroke="black" points="571.78,-717.51 566.35,-727.04 571.27,-722.82 570.86,-727.13 570.86,-727.13 570.86,-727.13 571.27,-722.82 575.31,-727.89 571.78,-717.51"/>
<text text-anchor="start" x="577.8" y="-711.8" font-family="Arial" font-size="10.00">FOREIGN KEY (assigned_to) REFERENCES employees(employee_id)</text>
</g>
<!-- public.tasks&#45;&gt;public.projects -->
<g id="edge7" class="edge">
<title>public.tasks:project_id&#45;&gt;public.projects:project_id</title>
<path fill="none" stroke="black" d="M694.05,-774.28C792.3,-759.59 655.39,-524.6 769.32,-524.6"/>
<polygon fill="black" stroke="black" points="694.1,-774.28 683.81,-770.49 688.78,-774.65 684.46,-774.95 684.46,-774.95 684.46,-774.95 688.78,-774.65 684.44,-779.47 694.1,-774.28"/>
<text text-anchor="start" x="396.71" y="-785" font-family="Arial" font-size="10.00">FOREIGN KEY (project_id) REFERENCES projects(project_id)</text>
</g>
<!-- public.job_history -->
<g id="node7" class="node">
<title>public.job_history</title>
<polygon fill="#efefef" stroke="none" points="84.81,-882.8 84.81,-918.4 354.79,-918.4 354.79,-882.8 84.81,-882.8"/>
<polygon fill="none" stroke="black" points="84.81,-882.8 84.81,-918.4 354.79,-918.4 354.79,-882.8 84.81,-882.8"/>
<text text-anchor="start" x="91.81" y="-896.2" font-family="Arial Bold" font-size="18.00">public.job_history</text>
<text text-anchor="start" x="223.3" y="-896.2" font-family="Arial" font-size="14.00">    </text>
<text text-anchor="start" x="254.42" y="-896.2" font-family="Arial" font-size="14.00" fill="#666666">[BASE TABLE]</text>
<polygon fill="none" stroke="black" points="84.81,-852 84.81,-882.8 354.79,-882.8 354.79,-852 84.81,-852"/>
<text text-anchor="start" x="91.81" y="-864.2" font-family="Arial" font-size="14.00">employee_id </text>
<text text-anchor="start" x="175.08" y="-864.2" font-family="Arial" font-size="14.00" fill="#666666">[integer]</text>
<polygon fill="none" stroke="black" points="84.81,-821.2 84.81,-852 354.79,-852 354.79,-821.2 84.81,-821.2"/>
<text text-anchor="start" x="91.81" y="-833.4" font-family="Arial" font-size="14.00">department_id </text>
<text text-anchor="start" x="185.2" y="-833.4" font-family="Arial" font-size="14.00" fill="#666666">[integer]</text>
<polygon fill="none" stroke="black" points="84.81,-790.4 84.81,-821.2 354.79,-821.2 354.79,-790.4 84.81,-790.4"/>
<text text-anchor="start" x="91.81" y="-802.6" font-family="Arial" font-size="14.00">start_date </text>
<text text-anchor="start" x="157.96" y="-802.6" font-family="Arial" font-size="14.00" fill="#666666">[date]</text>
<polygon fill="none" stroke="black" points="84.81,-759.6 84.81,-790.4 354.79,-790.4 354.79,-759.6 84.81,-759.6"/>
<text text-anchor="start" x="91.81" y="-771.8" font-family="Arial" font-size="14.00">end_date </text>
<text text-anchor="start" x="154.09" y="-771.8" font-family="Arial" font-size="14.00" fill="#666666">[date]</text>
</g>
<!-- public.job_history&#45;&gt;public.departments -->
<g id="edge8" class="edge">
<title>public.job_history:department_id&#45;&gt;public.departments:department_id</title>
<path fill="none" stroke="black" d="M366.04,-835.53C402.08,-826.73 359.15,-765.67 354.79,-716.4 332.43,-463.53 19.97,-151 273.83,-151"/>
<polygon fill="black" stroke="black" points="366.07,-835.52 355.66,-832.09 360.76,-836.08 356.46,-836.53 356.46,-836.53 356.46,-836.53 360.76,-836.08 356.59,-841.04 366.07,-835.52"/>
<text text-anchor="start" x="7" y="-846.6" font-family="Arial" font-size="10.00">FOREIGN KEY (department_id) REFERENCES departments(department_id)</text>
</g>
<!-- public.job_history&#45;&gt;public.employees -->
<g id="edge9" class="edge">
<title>public.job_history:employee_id&#45;&gt;public.employees:employee_id</title>
<path fill="none" stroke="black" d="M366.1,-866.76C483.7,-851.16 263.94,-555.4 400.32,-555.4"/>
<polygon fill="black" stroke="black" points="366.11,-866.76 355.85,-862.89 360.78,-867.09 356.46,-867.36 356.46,-867.36 356.46,-867.36 360.78,-867.09 356.4,-871.87 366.11,-866.76"/>
<text text-anchor="start" x="28.68" y="-877.4" font-family="Arial" font-size="10.00">FOREIGN KEY (employee_id) REFERENCES employees(employee_id)</text>
</g>
</g>
</svg>
